<svg width="1338" height="248" viewBox="0 0 1338 248" fill="none" xmlns="http://www.w3.org/2000/svg">
<path d="M40.5 138.75C48.8333 135.75 57.75 132.917 67.25 130.25C76.9167 127.583 86.5833 125.417 96.25 123.75C105.917 121.917 115.25 120.75 124.25 120.25C133.25 119.583 141.417 119.833 148.75 121C148.417 122.167 147.583 123.417 146.25 124.75C145.583 125.417 144.833 126.25 144 127.25L142.75 130.25L133.25 135L140.25 135.75C138.917 136.25 137.583 136.833 136.25 137.5C135.083 138 133.833 138.667 132.5 139.5C131.333 140.167 130.25 140.917 129.25 141.75C127.25 143.583 125.75 145.25 124.75 146.75C123.75 148.25 122.5 149.333 121 150C120.333 150 116.833 150.833 110.5 152.5C104.167 154 96 156.333 86 159.5C76.1667 162.667 65.0833 166.667 52.75 171.5C40.5833 176.167 28.25 181.583 15.75 187.75C13.75 188.75 11.5 187.75 9 184.75C6.66667 181.917 4.66667 178.417 3 174.25C1.5 170.083 0.75 165.917 0.75 161.75C0.75 157.417 2.25 154.417 5.25 152.75C6.08333 152.417 6.91667 152.083 7.75 151.75C8.75 151.25 9.75 150.833 10.75 150.5C10.5833 143.333 10.4167 135.417 10.25 126.75C10.25 118.083 10.1667 109.25 10 100.25C9.83333 91.25 9.58333 82.3333 9.25 73.5C9.08333 64.6667 8.75 56.5 8.25 49C7.91667 41.3333 7.5 34.6667 7 29C6.5 23.3333 5.83333 19.1667 5 16.5C7 15.8333 9.08333 15.1667 11.25 14.5C15.25 13.3333 19.8333 12.9167 25 13.25C31.5 12.25 39.5833 11.5 49.25 11C59.0833 10.5 68.8333 10.1667 78.5 9.99999C88.3333 9.66666 97.5 9.49999 106 9.49999C114.5 9.49999 120.75 9.49999 124.75 9.49999C124.583 9.99999 124.5 10.5833 124.5 11.25C124.667 11.9167 124.75 12.6667 124.75 13.5V16C123.75 16.3333 122.833 16.8333 122 17.5C121.167 18 120.333 18.5833 119.5 19.25C118.667 19.9167 117.833 20.6667 117 21.5C116.667 21.8333 116.167 22.25 115.5 22.75C115 23.0833 114.417 23.5 113.75 24L111.25 26H116.25L108.25 30.5L108 33.5C106.167 34.3333 104.417 35.0833 102.75 35.75C101.417 36.4167 100.083 37 98.75 37.5C97.5833 38 96.8333 38.3333 96.5 38.5C96.1667 38.5 94.4167 38.75 91.25 39.25C88.25 39.75 84.4167 40.4167 79.75 41.25C75.25 42.0833 70.1667 43 64.5 44C59 45 53.5 46 48 47C48 48 47.9167 49 47.75 50C47.75 51 47.75 52 47.75 53C47.5833 56.3333 47.4167 59.5 47.25 62.5C47.25 65.5 47.0833 68.5 46.75 71.5C52.25 70.8333 58 70.1667 64 69.5C70 68.8333 75.8333 68.3333 81.5 68C87.1667 67.5 92.4167 67.1667 97.25 67C102.25 66.6667 106.417 66.5 109.75 66.5C109.583 66.8333 109.417 67.3333 109.25 68C109.25 68.6667 109.083 69.25 108.75 69.75C108.417 70.4167 108.083 71.0833 107.75 71.75L106.75 77.75L99 82.25H102.25L94 87.75L94.5 90.25L85.5 92.75L84 95.75C82.3333 96.5833 80.6667 97.3333 79 98C77.6667 98.6667 76.25 99.3333 74.75 100C73.4167 100.667 72.3333 101.167 71.5 101.5C71.1667 101.5 70.0833 101.75 68.25 102.25C66.4167 102.75 64.1667 103.417 61.5 104.25C59 104.917 56.1667 105.667 53 106.5C49.8333 107.333 46.75 108.167 43.75 109C43.25 115.667 42.6667 121.5 42 126.5C41.5 131.5 41 135.583 40.5 138.75ZM236.262 134.75L232.762 141.75L234.262 142.5C233.928 142.833 233.428 143.25 232.762 143.75C231.595 144.583 230.595 145.167 229.762 145.5C229.262 145.5 226.512 146.667 221.512 149C216.678 151.333 210.512 154.583 203.012 158.75C195.512 162.917 187.095 168 177.762 174C168.428 179.833 158.928 186.333 149.262 193.5C148.095 194.5 146.345 194.25 144.012 192.75C141.845 191.417 139.595 189.417 137.262 186.75C134.928 184.083 132.762 181 130.762 177.5C128.762 173.833 127.262 170.25 126.262 166.75C125.095 163.25 124.678 160.083 125.012 157.25C125.345 154.25 126.845 152.083 129.512 150.75C130.678 149.917 131.845 149.25 133.012 148.75C133.512 141.25 134.095 132.917 134.762 123.75C135.595 114.583 136.262 105.167 136.762 95.5C137.428 85.8333 137.928 76.3333 138.262 67C138.595 57.5 138.678 48.75 138.512 40.75C138.512 32.5833 138.178 25.5 137.512 19.5C136.845 13.3333 135.845 8.83332 134.512 5.99999C142.678 2.49999 150.095 1.08333 156.762 1.75C159.428 2.08333 162.095 2.91666 164.762 4.24999C167.428 5.41666 169.845 7.33332 172.012 9.99999C174.178 12.6667 175.845 16.1667 177.012 20.5C178.345 24.6667 179.012 30 179.012 36.5C179.012 44.1667 178.595 52.25 177.762 60.75C177.095 69.0833 176.178 77.4167 175.012 85.75C174.012 94.0833 172.762 102.167 171.262 110C169.928 117.833 168.595 125 167.262 131.5C172.928 129 178.678 126.583 184.512 124.25C190.512 121.917 196.512 119.917 202.512 118.25C208.512 116.417 214.345 115.083 220.012 114.25C225.678 113.417 231.095 113.167 236.262 113.5C236.428 113.667 236.178 113.917 235.512 114.25C235.012 114.417 234.428 114.667 233.762 115C233.095 115.333 232.428 115.667 231.762 116C231.262 116.333 231.095 116.583 231.262 116.75C231.428 117.083 231.845 117.333 232.512 117.5C233.345 117.667 234.178 117.917 235.012 118.25C236.012 118.417 236.845 118.667 237.512 119C238.345 119.167 238.762 119.417 238.762 119.75C238.928 120.083 238.845 120.583 238.512 121.25C238.178 121.917 237.845 122.583 237.512 123.25C237.012 123.917 236.512 124.667 236.012 125.5L236.262 134.75ZM269.504 138.75C277.837 135.75 286.754 132.917 296.254 130.25C305.921 127.583 315.587 125.417 325.254 123.75C334.921 121.917 344.254 120.75 353.254 120.25C362.254 119.583 370.421 119.833 377.754 121C377.421 122.167 376.587 123.417 375.254 124.75C374.587 125.417 373.837 126.25 373.004 127.25L371.754 130.25L362.254 135L369.254 135.75C367.921 136.25 366.587 136.833 365.254 137.5C364.087 138 362.837 138.667 361.504 139.5C360.337 140.167 359.254 140.917 358.254 141.75C356.254 143.583 354.754 145.25 353.754 146.75C352.754 148.25 351.504 149.333 350.004 150C349.337 150 345.837 150.833 339.504 152.5C333.171 154 325.004 156.333 315.004 159.5C305.171 162.667 294.087 166.667 281.754 171.5C269.587 176.167 257.254 181.583 244.754 187.75C242.754 188.75 240.504 187.75 238.004 184.75C235.671 181.917 233.671 178.417 232.004 174.25C230.504 170.083 229.754 165.917 229.754 161.75C229.754 157.417 231.254 154.417 234.254 152.75C235.087 152.417 235.921 152.083 236.754 151.75C237.754 151.25 238.754 150.833 239.754 150.5C239.587 143.333 239.421 135.417 239.254 126.75C239.254 118.083 239.171 109.25 239.004 100.25C238.837 91.25 238.587 82.3333 238.254 73.5C238.087 64.6667 237.754 56.5 237.254 49C236.921 41.3333 236.504 34.6667 236.004 29C235.504 23.3333 234.837 19.1667 234.004 16.5C236.004 15.8333 238.087 15.1667 240.254 14.5C244.254 13.3333 248.837 12.9167 254.004 13.25C260.504 12.25 268.587 11.5 278.254 11C288.087 10.5 297.837 10.1667 307.504 9.99999C317.337 9.66666 326.504 9.49999 335.004 9.49999C343.504 9.49999 349.754 9.49999 353.754 9.49999C353.587 9.99999 353.504 10.5833 353.504 11.25C353.671 11.9167 353.754 12.6667 353.754 13.5V16C352.754 16.3333 351.837 16.8333 351.004 17.5C350.171 18 349.337 18.5833 348.504 19.25C347.671 19.9167 346.837 20.6667 346.004 21.5C345.671 21.8333 345.171 22.25 344.504 22.75C344.004 23.0833 343.421 23.5 342.754 24L340.254 26H345.254L337.254 30.5L337.004 33.5C335.171 34.3333 333.421 35.0833 331.754 35.75C330.421 36.4167 329.087 37 327.754 37.5C326.587 38 325.837 38.3333 325.504 38.5C325.171 38.5 323.421 38.75 320.254 39.25C317.254 39.75 313.421 40.4167 308.754 41.25C304.254 42.0833 299.171 43 293.504 44C288.004 45 282.504 46 277.004 47C277.004 48 276.921 49 276.754 50C276.754 51 276.754 52 276.754 53C276.587 56.3333 276.421 59.5 276.254 62.5C276.254 65.5 276.087 68.5 275.754 71.5C281.254 70.8333 287.004 70.1667 293.004 69.5C299.004 68.8333 304.837 68.3333 310.504 68C316.171 67.5 321.421 67.1667 326.254 67C331.254 66.6667 335.421 66.5 338.754 66.5C338.587 66.8333 338.421 67.3333 338.254 68C338.254 68.6667 338.087 69.25 337.754 69.75C337.421 70.4167 337.087 71.0833 336.754 71.75L335.754 77.75L328.004 82.25H331.254L323.004 87.75L323.504 90.25L314.504 92.75L313.004 95.75C311.337 96.5833 309.671 97.3333 308.004 98C306.671 98.6667 305.254 99.3333 303.754 100C302.421 100.667 301.337 101.167 300.504 101.5C300.171 101.5 299.087 101.75 297.254 102.25C295.421 102.75 293.171 103.417 290.504 104.25C288.004 104.917 285.171 105.667 282.004 106.5C278.837 107.333 275.754 108.167 272.754 109C272.254 115.667 271.671 121.5 271.004 126.5C270.504 131.5 270.004 135.583 269.504 138.75ZM473.762 99.5C476.762 110.5 477.345 121 475.512 131C473.678 141 470.012 149.75 464.512 157.25C459.012 164.75 451.845 170.75 443.012 175.25C434.345 179.583 424.512 181.75 413.512 181.75C405.012 181.75 396.678 180.167 388.512 177C380.345 173.833 373.012 169 366.512 162.5C360.178 155.833 355.095 147.5 351.262 137.5C347.428 127.5 345.762 115.667 346.262 102C346.762 86 349.762 72.3333 355.262 61C360.928 49.5 367.762 40.0833 375.762 32.75C383.762 25.4167 392.345 20 401.512 16.5C410.845 13 419.345 11.1667 427.012 11C434.845 10.6667 441.345 11.9167 446.512 14.75C451.678 17.4167 454.178 21.4167 454.012 26.75C454.012 29.5833 453.595 32.6667 452.762 36C452.095 39.1667 451.095 42.3333 449.762 45.5C448.595 48.5 447.178 51.1667 445.512 53.5C443.845 55.8333 442.012 57.4167 440.012 58.25C433.345 54.9167 426.928 53.0833 420.762 52.75C414.595 52.25 408.762 52.9167 403.262 54.75C397.928 56.4167 393.012 59.0833 388.512 62.75C384.012 66.4167 380.095 70.5833 376.762 75.25C373.595 79.75 371.095 84.6667 369.262 90C367.428 95.3333 366.428 100.583 366.262 105.75C366.095 109.75 367.095 114 369.262 118.5C371.428 122.833 374.512 126.917 378.512 130.75C382.678 134.417 387.512 137.5 393.012 140C398.678 142.5 404.928 143.75 411.762 143.75C419.762 143.75 427.178 142.083 434.012 138.75C440.845 135.25 446.762 131.167 451.762 126.5C456.928 121.667 460.928 116.75 463.762 111.75C466.762 106.583 468.262 102.417 468.262 99.25C468.262 96.9167 468.512 95.6667 469.012 95.5C469.678 95.1667 470.345 95.3333 471.012 96C471.678 96.6667 472.595 97.8333 473.762 99.5ZM527.525 8.99999C540.025 9.5 552.775 10.25 565.775 11.25C578.942 12.0833 592.275 13 605.775 14C605.442 16.3333 604.692 19.0833 603.525 22.25C602.359 25.25 600.525 28.3333 598.025 31.5C595.692 34.5 592.609 37.4167 588.775 40.25C585.109 43.0833 580.525 45.3333 575.025 47C568.692 47.3333 562.609 47.6667 556.775 48C550.942 48.1667 545.359 48.4167 540.025 48.75C539.692 61.4167 539.025 74.1667 538.025 87C537.192 99.6667 536.275 111.25 535.275 121.75C534.109 133.917 532.859 145.583 531.525 156.75L526.025 169L524.025 168.75L520.025 177.75C519.859 177.417 519.609 177.167 519.275 177C518.609 176.667 517.859 177 517.025 178C516.692 178.333 516.192 179.333 515.525 181C515.192 181.667 514.942 182.417 514.775 183.25H512.775L509.525 188.25L507.275 182C506.942 183.5 506.525 184.917 506.025 186.25C505.692 187.417 505.359 188.417 505.025 189.25C504.692 190.25 504.359 190.75 504.025 190.75C503.859 189.417 503.692 186.25 503.525 181.25C503.359 176.25 503.192 170.083 503.025 162.75C503.025 155.25 502.942 146.833 502.775 137.5C502.609 128.167 502.442 118.583 502.275 108.75C502.109 98.75 501.859 88.8333 501.525 79C501.359 69 501.109 59.5833 500.775 50.75C489.442 51.4167 480.525 51.9167 474.025 52.25C467.692 52.5833 463.442 52.8333 461.275 53C457.775 53.1667 454.859 52.25 452.525 50.25C450.025 48.25 448.109 45.75 446.775 42.75C445.442 39.5833 444.609 36.25 444.275 32.75C443.942 29.0833 444.109 25.6667 444.775 22.5C445.275 19.3333 446.275 16.6667 447.775 14.5C449.109 12.1667 450.942 10.8333 453.275 10.5C459.609 9.66666 466.525 9.08332 474.025 8.75C481.525 8.41666 489.525 8.24999 498.025 8.24999C499.025 7.24999 499.942 6.58333 500.775 6.25C502.275 5.74999 504.109 5.33333 506.275 5C508.442 4.66666 510.692 4.58332 513.025 4.74999C515.525 4.74999 517.942 5.08332 520.275 5.74999C522.775 6.41666 525.192 7.49999 527.525 8.99999ZM578.818 11C578.818 10.5 579.068 9.83332 579.568 8.99999C580.068 8.16666 580.902 7.58332 582.068 7.24998C584.735 6.58333 588.152 6.08333 592.318 5.74999C596.652 5.41666 600.818 6.33333 604.818 8.5C608.985 10.5 612.485 14.25 615.318 19.75C618.152 25.25 619.485 33.4167 619.318 44.25C618.985 56.4167 618.485 68.75 617.818 81.25C617.318 93.75 616.652 105.167 615.818 115.5C614.985 127.5 614.068 139.167 613.068 150.5L612.318 152C611.985 152.5 611.568 153.167 611.068 154C610.735 154.667 610.235 155.5 609.568 156.5C609.235 157.167 608.735 158 608.068 159C607.568 160 607.068 161.083 606.568 162.25C605.902 163.583 605.235 165 604.568 166.5C604.068 166.667 603.485 166.917 602.818 167.25C601.652 167.917 600.652 168.75 599.818 169.75C599.652 170.083 599.485 170.5 599.318 171C599.152 171.333 598.902 171.833 598.568 172.5C598.235 173.167 597.985 173.917 597.818 174.75L595.818 174.5L592.818 179.25L591.818 178.75C591.152 178.417 590.735 178.25 590.568 178.25C589.902 178.583 589.318 179.25 588.818 180.25C588.485 181.083 588.068 181.5 587.568 181.5C587.402 180.333 587.152 177.333 586.818 172.5C586.652 167.667 586.485 161.75 586.318 154.75C586.152 147.583 585.902 139.583 585.568 130.75C585.402 121.75 585.152 112.5 584.818 103C584.485 93.5 584.152 84 583.818 74.5C583.485 65 583.068 56.1667 582.568 48C582.068 39.6667 581.485 32.3333 580.818 26C580.152 19.5 579.485 14.5 578.818 11ZM618.629 95.25C618.629 79.0833 620.046 65.6667 622.879 55C625.879 44.3333 629.129 35.8333 632.629 29.5C636.129 23 639.379 18.4167 642.379 15.75C645.546 13.0833 647.296 11.6667 647.629 11.5C650.629 9.83332 653.962 9.41666 657.629 10.25C661.296 11.0833 664.712 12.5833 667.879 14.75C671.046 16.9167 673.629 19.4167 675.629 22.25C677.796 24.9167 678.879 27.4167 678.879 29.75C678.879 31.4167 677.712 33.5833 675.379 36.25C673.212 38.75 670.712 42.4167 667.879 47.25C665.212 52.0833 662.712 58.3333 660.379 66C658.212 73.6667 657.129 83.25 657.129 94.75C657.129 106.917 658.379 117.083 660.879 125.25C663.379 133.417 666.212 140 669.379 145C672.712 150 675.962 153.583 679.129 155.75C682.296 157.917 684.462 159.083 685.629 159.25C687.629 159.417 690.296 158.167 693.629 155.5C697.129 152.833 700.546 148.583 703.879 142.75C707.212 136.917 710.046 129.583 712.379 120.75C714.879 111.75 716.129 101.083 716.129 88.75C716.129 81.0833 715.546 74.3333 714.379 68.5C713.379 62.6667 712.046 57.6667 710.379 53.5C708.712 49.1667 706.712 45.5833 704.379 42.75C702.212 39.9167 700.046 37.5833 697.879 35.75C692.379 31.5833 686.296 29.4167 679.629 29.25L677.879 28.75L679.879 27.75C680.879 27.25 681.296 26.6667 681.129 26C680.962 25.8333 681.962 25.8333 684.129 26C686.296 26.1667 688.796 26.6667 691.629 27.5C694.629 28.1667 697.546 29.25 700.379 30.75C703.379 32.0833 705.546 33.9167 706.879 36.25C705.712 33.25 703.629 30.9167 700.629 29.25C697.629 27.5833 694.462 26.3333 691.129 25.5C687.962 24.5 685.129 23.8333 682.629 23.5C680.129 23.1667 678.879 22.9167 678.879 22.75C678.879 21.9167 679.129 20.9167 679.629 19.75C680.296 18.4167 681.629 17.3333 683.629 16.5C687.129 14.8333 691.212 13.9167 695.879 13.75C700.712 13.5833 705.629 14.3333 710.629 16C715.629 17.5 720.546 20.0833 725.379 23.75C730.212 27.25 734.546 31.9167 738.379 37.75C742.212 43.5833 745.296 50.75 747.629 59.25C749.962 67.5833 751.129 77.4167 751.129 88.75C751.129 104.583 749.129 118.333 745.129 130C741.129 141.667 736.212 151.417 730.379 159.25C724.712 166.917 718.629 172.667 712.129 176.5C705.629 180.333 699.879 182.25 694.879 182.25C681.379 182.25 669.796 179.5 660.129 174C650.629 168.333 642.796 161.25 636.629 152.75C630.462 144.25 625.879 134.917 622.879 124.75C620.046 114.417 618.629 104.583 618.629 95.25ZM871.426 38.75C870.926 58.9167 870.676 76.0833 870.676 90.25C870.842 104.417 871.092 116.333 871.426 126C871.926 135.667 872.509 143.417 873.176 149.25C873.842 154.917 874.426 159.417 874.926 162.75C875.426 166.083 875.759 168.583 875.926 170.25C876.259 171.75 876.259 173.083 875.926 174.25C875.426 175.583 874.176 176.833 872.176 178C870.176 179.167 867.842 180.167 865.176 181C862.509 181.833 859.676 182.417 856.676 182.75C853.842 183.25 851.259 183.417 848.926 183.25C845.592 182.917 842.926 181.667 840.926 179.5C839.092 177.167 837.759 173.417 836.926 168.25C832.592 161.75 828.176 154.75 823.676 147.25C819.342 139.75 815.009 132.083 810.676 124.25C806.342 116.25 802.092 108.25 797.926 100.25C793.759 92.0833 789.676 84.1667 785.676 76.5C784.842 86.6667 784.092 96.5 783.426 106C782.759 115.333 782.092 123.667 781.426 131C780.759 139.667 780.092 147.75 779.426 155.25L777.926 154.75L771.676 167L767.926 169L764.926 177.25L761.926 174.75L758.426 183.25H756.676C756.176 183.25 755.676 183.333 755.176 183.5C754.676 183.667 754.259 183.833 753.926 184C753.092 184.5 752.092 185.5 750.926 187C750.759 185.667 750.592 182.5 750.426 177.5C750.259 172.333 750.092 166 749.926 158.5C749.926 151 749.842 142.583 749.676 133.25C749.676 123.75 749.592 114.083 749.426 104.25C749.426 94.4167 749.259 84.6667 748.926 75C748.759 65.1667 748.509 56.1667 748.176 48C747.842 39.6667 747.342 32.5 746.676 26.5C746.176 20.5 745.592 16.1667 744.926 13.5C745.759 13.3333 746.676 13.0833 747.676 12.75C748.509 12.4167 749.592 12.1667 750.926 12C752.259 11.8333 753.676 11.5833 755.176 11.25C758.676 9.74999 762.342 8.74999 766.176 8.24999C770.176 7.74999 773.926 7.91666 777.426 8.75C781.092 9.41666 784.426 10.8333 787.426 13C790.426 15.1667 792.676 18.25 794.176 22.25C797.342 30.75 800.759 39.5 804.426 48.5C808.259 57.5 812.092 66.3333 815.926 75C819.759 83.5 823.426 91.5833 826.926 99.25C830.426 106.917 833.592 113.667 836.426 119.5C836.926 108.333 837.592 96.5833 838.426 84.25C839.259 71.9167 840.176 60.25 841.176 49.25C842.342 38.0833 843.509 28.1667 844.676 19.5C845.842 10.8333 846.926 4.58333 847.926 0.749994C848.259 1.08332 848.509 2.08332 848.676 3.74999C849.009 5.24999 849.342 6.16666 849.676 6.49999C850.009 6.83332 850.342 6.41666 850.676 5.25C851.009 3.91666 851.342 3.41666 851.676 3.74999C851.842 3.91666 852.092 4.5 852.426 5.49999C852.759 6.33333 853.092 7.33333 853.426 8.5C853.759 9.66666 854.092 10.75 854.426 11.75C854.759 12.75 855.009 13.3333 855.176 13.5C855.676 14 856.592 14.25 857.926 14.25C858.592 14.25 859.176 14.1667 859.676 14C861.009 16.3333 862.342 18.75 863.676 21.25C864.842 23.4167 866.009 25.8333 867.176 28.5C868.342 31 869.509 33.6667 870.676 36.5L871.426 38.75ZM919.5 16.5C920.667 15.3333 924.083 14.25 929.75 13.25C935.417 12.0833 942.417 11.4167 950.75 11.25C959.25 10.9167 968.667 11.1667 979 12C989.333 12.6667 999.75 14.25 1010.25 16.75C1020.92 19.25 1031.25 22.8333 1041.25 27.5C1051.42 32 1060.33 37.9167 1068 45.25C1075.83 52.4167 1082.08 61.1667 1086.75 71.5C1091.42 81.6667 1093.75 93.6667 1093.75 107.5C1093.58 117.5 1091.67 126.25 1088 133.75C1084.33 141.083 1079.58 147.333 1073.75 152.5C1068.08 157.667 1061.67 161.833 1054.5 165C1047.33 168.167 1040.25 170.667 1033.25 172.5C1026.25 174.167 1019.67 175.333 1013.5 176C1007.33 176.667 1002.33 177 998.5 177C997.667 177 996.667 177 995.5 177C994.333 176.833 993.083 176.667 991.75 176.5L990.25 179.75L985.75 179.5L983.25 185.5L980.5 184.75C980.333 185.25 980.083 185.75 979.75 186.25C979.083 187.25 978.583 187.75 978.25 187.75C978.083 186.917 977.917 185.25 977.75 182.75C977.75 180.25 977.667 177.083 977.5 173.25C973.333 171.75 969.167 169.75 965 167.25C961 164.583 957.333 161.083 954 156.75C950.833 152.25 948.167 146.917 946 140.75C944 134.417 943 126.917 943 118.25C943.667 116.917 944.333 115.917 945 115.25C945.5 114.75 945.917 114.667 946.25 115C946.75 115.167 947 116.333 947 118.5C947 121.667 949.667 125.167 955 129C960.5 132.833 967.667 135.917 976.5 138.25C976.333 130.583 976.083 122.583 975.75 114.25C975.583 105.917 975.25 97.8333 974.75 90C974.417 82 974 74.4167 973.5 67.25C973.167 60.0833 972.667 53.8333 972 48.5C957.5 48 942.5 49.5833 927 53.25C924.833 52.4167 922.833 50.5 921 47.5C919 44.3333 917.5 40.9167 916.5 37.25C915.5 33.4167 915.167 29.5833 915.5 25.75C915.833 21.9167 917.167 18.8333 919.5 16.5ZM998.25 141C998.417 141 998.583 141 998.75 141C998.917 140.833 999.083 140.75 999.25 140.75V111.25L997 140.75C997.167 140.75 997.333 140.833 997.5 141C997.667 141 997.917 141 998.25 141ZM1073 99.5C1073.17 96 1071.75 92.0833 1068.75 87.75C1065.75 83.4167 1061.33 79.0833 1055.5 74.75C1049.67 70.4167 1042.58 66.3333 1034.25 62.5C1026.08 58.6667 1016.92 55.5 1006.75 53C1006.75 59.8333 1006.58 67.3333 1006.25 75.5C1006.08 83.5 1005.83 91.5 1005.5 99.5C1005.17 107.5 1004.83 115.083 1004.5 122.25C1004.17 129.417 1003.92 135.583 1003.75 140.75C1011.42 140.083 1019.25 138.417 1027.25 135.75C1035.42 133.083 1042.83 129.833 1049.5 126C1056.17 122 1061.67 117.75 1066 113.25C1070.33 108.583 1072.67 104 1073 99.5ZM1210.61 157C1210.61 157.5 1210.77 158.417 1211.11 159.75C1211.61 160.917 1212.02 162.167 1212.36 163.5C1212.86 164.833 1213.27 166.167 1213.61 167.5C1214.11 168.667 1214.36 169.417 1214.36 169.75C1214.19 171.583 1213.94 173.167 1213.61 174.5C1213.27 175.667 1212.94 176.75 1212.61 177.75C1212.27 178.417 1211.69 179 1210.86 179.5C1210.19 179.833 1209.69 180.167 1209.36 180.5C1209.02 181 1208.86 181.417 1208.86 181.75C1209.02 181.917 1208.94 182.167 1208.61 182.5C1208.27 182.833 1207.86 183.083 1207.36 183.25C1206.86 183.417 1206.44 183.667 1206.11 184C1205.27 184.333 1204.36 184.5 1203.36 184.5H1202.11C1199.44 184.5 1195.86 181.167 1191.36 174.5C1186.86 167.667 1182.02 158.75 1176.86 147.75C1176.02 148.083 1175.11 148.417 1174.11 148.75C1173.27 149.083 1172.36 149.417 1171.36 149.75C1168.52 149.417 1164.86 149.417 1160.36 149.75C1155.86 149.917 1151.02 150.25 1145.86 150.75C1140.69 151.25 1135.44 151.917 1130.11 152.75C1124.94 153.417 1120.27 154 1116.11 154.5C1113.27 160 1110.27 165.5 1107.11 171C1104.11 176.333 1100.94 181.667 1097.61 187C1096.94 187.333 1096.52 187 1096.36 186C1096.19 185 1095.69 184.167 1094.86 183.5C1094.52 183.167 1093.94 183.167 1093.11 183.5C1092.27 184 1091.61 184 1091.11 183.5C1090.94 183.333 1090.77 182.833 1090.61 182C1090.44 181 1090.27 180.083 1090.11 179.25L1089.61 175.75C1088.94 175.75 1088.27 175.5 1087.61 175C1086.27 174.333 1085.36 173.167 1084.86 171.5C1084.69 171.167 1084.61 170.583 1084.61 169.75C1084.77 168.75 1084.94 167.583 1085.11 166.25C1085.27 164.917 1085.44 163.333 1085.61 161.5C1085.11 162.167 1084.61 162.667 1084.11 163C1083.11 163.667 1082.52 163.667 1082.36 163C1082.02 161.333 1081.86 159.75 1081.86 158.25C1081.69 156.583 1081.77 155.083 1082.11 153.75C1083.27 150.25 1085.61 143.917 1089.11 134.75C1092.77 125.417 1096.69 114.333 1100.86 101.5C1105.02 88.6667 1108.86 74.5 1112.36 59C1116.02 43.3333 1118.44 27.4167 1119.61 11.25C1129.61 9.91666 1137.61 9.49999 1143.61 9.99999C1149.77 10.3333 1154.36 11.4167 1157.36 13.25C1162.19 13.0833 1166.52 14 1170.36 16C1174.36 17.8333 1176.69 21.5 1177.36 27C1177.86 31.5 1178.61 37.75 1179.61 45.75C1180.77 53.5833 1182.61 63 1185.11 74C1187.61 85 1191.02 97.5 1195.36 111.5C1199.86 125.5 1205.77 140.917 1213.11 157.75C1213.27 158.417 1213.19 158.667 1212.86 158.5C1212.69 158.333 1212.36 158.083 1211.86 157.75C1211.52 157.25 1211.19 156.917 1210.86 156.75C1210.69 156.417 1210.61 156.5 1210.61 157ZM1132.11 120C1137.44 119.833 1142.86 119.917 1148.36 120.25C1154.02 120.417 1159.52 120.75 1164.86 121.25C1161.86 114.083 1158.94 106.833 1156.11 99.5C1153.27 92 1150.61 84.5 1148.11 77C1145.44 84.8333 1142.77 92.3333 1140.11 99.5C1137.61 106.5 1134.94 113.333 1132.11 120ZM1317.54 10.5C1322.21 11.1667 1325.88 12.5833 1328.54 14.75C1331.38 16.9167 1333.38 19.25 1334.54 21.75C1335.88 24.25 1336.63 26.5833 1336.79 28.75C1337.13 30.9167 1337.29 32.3333 1337.29 33C1337.13 33.5 1336.38 36.25 1335.04 41.25C1333.71 46.0833 1332.04 52.5833 1330.04 60.75C1328.21 68.9167 1326.21 78.4167 1324.04 89.25C1322.04 99.9167 1320.29 111.333 1318.79 123.5C1317.46 135.5 1316.54 148 1316.04 161C1315.54 174 1315.96 186.75 1317.29 199.25C1316.96 201.083 1316.71 202.833 1316.54 204.5C1316.38 206.167 1316.21 207.75 1316.04 209.25C1316.04 209.417 1315.79 208.083 1315.29 205.25C1314.96 202.583 1314.54 199.583 1314.04 196.25L1312.04 182.75C1312.54 188.75 1313.04 194 1313.54 198.5C1313.88 202.5 1314.21 206.083 1314.54 209.25C1314.88 212.583 1315.04 214.333 1315.04 214.5C1314.88 217.667 1314.63 220.75 1314.29 223.75C1314.29 223.917 1314.13 223.25 1313.79 221.75C1313.63 220.417 1313.54 219.833 1313.54 220C1313.54 220.333 1313.63 221.5 1313.79 223.5C1313.96 225.5 1314.04 226.667 1314.04 227C1313.71 232 1313.63 235.417 1313.79 237.25C1314.13 239.083 1314.29 240.333 1314.29 241C1314.29 241.333 1314.13 241.333 1313.79 241C1313.63 240.833 1313.38 240.583 1313.04 240.25C1313.04 240.75 1312.79 241.5 1312.29 242.5C1311.79 243.5 1311.38 244.167 1311.04 244.5C1309.21 245.667 1307.29 246.417 1305.29 246.75C1303.46 247.25 1302.13 246.75 1301.29 245.25C1296.13 235.25 1292.04 224.833 1289.04 214C1286.04 203.167 1283.88 192.25 1282.54 181.25C1281.21 170.083 1280.46 159 1280.29 148C1280.29 136.833 1280.71 125.917 1281.54 115.25C1278.71 122.917 1276.04 130.167 1273.54 137C1271.21 143.667 1268.96 149.667 1266.79 155C1264.79 160.167 1262.96 164.5 1261.29 168C1259.63 171.333 1258.13 173.5 1256.79 174.5C1254.96 175.833 1252.63 176.583 1249.79 176.75C1247.13 176.917 1244.13 176.833 1240.79 176.5C1234.63 175.667 1229.54 173.333 1225.54 169.5C1221.71 165.5 1218.63 160.5 1216.29 154.5C1214.13 148.5 1212.46 141.75 1211.29 134.25C1210.29 126.583 1209.63 118.667 1209.29 110.5C1208.96 102.167 1208.79 93.8333 1208.79 85.5C1208.79 77 1208.71 69 1208.54 61.5C1208.38 54 1207.88 47.25 1207.04 41.25C1206.38 35.0833 1205.04 30.0833 1203.04 26.25C1202.38 24.9167 1201.54 23.75 1200.54 22.75C1200.04 22.25 1199.54 21.8333 1199.04 21.5C1199.04 16.6667 1200.71 13.5 1204.04 12C1207.54 10.3333 1212.38 9.91665 1218.54 10.75C1226.54 11.75 1232.13 14.5 1235.29 19C1238.63 23.3333 1240.79 29.6667 1241.79 38C1242.79 46.3333 1243.13 56.75 1242.79 69.25C1242.63 81.5833 1243.04 96.25 1244.04 113.25C1244.71 113.25 1246.04 111.667 1248.04 108.5C1250.04 105.333 1252.46 101.083 1255.29 95.75C1258.13 90.4167 1261.21 84.5 1264.54 78C1268.04 71.5 1271.54 64.9167 1275.04 58.25C1278.54 51.5833 1281.96 45.3333 1285.29 39.5C1288.63 33.6667 1291.63 28.75 1294.29 24.75C1294.46 23.9167 1294.54 23.25 1294.54 22.75C1294.54 22.0833 1294.63 21.3333 1294.79 20.5C1295.13 17.6667 1296.21 15.5 1298.04 14C1300.04 12.5 1302.21 11.5 1304.54 11C1306.88 10.3333 1309.21 10.0833 1311.54 10.25C1314.04 10.25 1316.04 10.3333 1317.54 10.5Z" fill="black"/>
</svg>