<svg width="186" height="111" viewBox="0 0 186 111" fill="none" xmlns="http://www.w3.org/2000/svg">
<g filter="url(#filter0_d_701_261)">
<path d="M4 11.958C4 7.53974 7.58172 3.95801 12 3.95801H170C174.418 3.95801 178 7.53973 178 11.958V91.2173C178 95.6356 174.418 99.2173 170 99.2173H12C7.58172 99.2173 4 95.6356 4 91.2173V11.958Z" fill="#FFE600"/>
<path d="M4 11.958C4 7.53974 7.58172 3.95801 12 3.95801H170C174.418 3.95801 178 7.53973 178 11.958V91.2173C178 95.6356 174.418 99.2173 170 99.2173H12C7.58172 99.2173 4 95.6356 4 91.2173V11.958Z" stroke="black" stroke-width="7"/>
</g>
<g filter="url(#filter1_d_701_261)">
<path d="M74.0254 12.6885L84.416 13.1182L84.4941 13.2354V16.6729C84.4941 16.751 84.4421 16.79 84.3379 16.79C83.2767 16.79 81.2064 16.8031 78.127 16.8291L77.541 23.1572C79.5527 22.9749 80.6204 22.8838 80.7441 22.8838V22.3369C80.7441 21.9333 80.7311 21.2822 80.7051 20.3838C80.7572 20.3838 80.7832 20.3577 80.7832 20.3057C81.6882 20.3317 82.3392 20.3447 82.7363 20.3447H84.377C84.416 20.3447 84.4551 20.3838 84.4941 20.4619V26.0088C84.4941 26.126 83.6217 26.2301 81.877 26.3213L73.9863 27.0244L73.9082 26.9072V12.8057C73.9082 12.7666 73.9473 12.7275 74.0254 12.6885ZM85.334 13.5088C85.6595 13.5088 89.123 13.639 95.7246 13.8994L95.8027 14.0166V16.79L95.7246 16.9072C92.6647 16.6208 90.6855 16.4775 89.7871 16.4775L89.4355 18.9775H93.3418C93.4655 18.9775 93.5566 19.6676 93.6152 21.0479C93.6478 21.0479 93.6738 21.2952 93.6934 21.79C93.6934 21.9202 93.1074 22.0114 91.9355 22.0635C91.8639 22.0895 91.0176 22.1807 89.3965 22.3369L89.6309 24.2119C91.916 24.0557 93.9473 23.8994 95.7246 23.7432L95.8027 23.8604V26.4775C95.8027 26.6077 95.0215 26.6729 93.459 26.6729C93.4395 26.7054 90.7572 26.8096 85.4121 26.9854C85.36 27.0114 85.321 27.0244 85.2949 27.0244L85.2168 26.9072V13.626C85.2168 13.5869 85.2559 13.5479 85.334 13.5088ZM96.6035 13.001C103.212 13.652 106.701 14.0036 107.072 14.0557L107.111 14.1338V17.2197C107.111 17.2588 107.072 17.2979 106.994 17.3369C106.779 17.3369 105.646 17.389 103.596 17.4932C103.596 18.1963 103.713 21.2952 103.947 26.79L103.83 26.8682L100.197 26.9854C100.145 27.0114 100.106 27.0244 100.08 27.0244L100.002 26.9072V17.2979L96.6035 17.2197L96.5254 17.1025V13.1182L96.6035 13.001ZM23.1465 41.6924L36.3301 42.2197C36.4375 42.2197 37.1992 43.2744 38.6152 45.3838C38.7715 45.5107 38.8496 45.7061 38.8496 45.9697V51.1846C38.8496 51.4189 38.2051 52.083 36.916 53.1768L36.7402 53.4111V53.5283C38.1367 54.6611 38.8398 55.3057 38.8496 55.4619V59.0361C38.8496 59.2607 37.9121 60.2568 36.0371 62.0244C28.2051 61.6338 23.8887 61.4385 23.0879 61.4385L22.9707 61.2627V41.8682C22.9707 41.8096 23.0293 41.751 23.1465 41.6924ZM28.127 45.6182V51.3604H33.5176C33.5957 51.3604 33.6348 51.3213 33.6348 51.2432C33.6348 50.9502 33.7715 49.29 34.0449 46.2627C33.5762 46.1846 31.6035 45.9697 28.127 45.6182ZM27.7754 54.8174C27.7363 56.0088 27.7168 56.8877 27.7168 57.4541V58.6846C30.998 58.6064 32.9316 58.5674 33.5176 58.5674V58.5088C33.5176 58.0303 33.4199 56.8779 33.2246 55.0518L27.7754 54.8174ZM40.168 41.751C40.6562 41.751 45.8516 41.9463 55.7539 42.3369L55.8711 42.5127V46.6729L55.7539 46.8486C51.1641 46.4189 48.1953 46.2041 46.8477 46.2041L46.3203 49.9541H52.1797C52.3652 49.9541 52.502 50.9893 52.5898 53.0596C52.6387 53.0596 52.6777 53.4307 52.707 54.1729C52.707 54.3682 51.8281 54.5049 50.0703 54.583C49.9629 54.6221 48.6934 54.7588 46.2617 54.9932L46.6133 57.8057C50.041 57.5713 53.0879 57.3369 55.7539 57.1025L55.8711 57.2783V61.2041C55.8711 61.3994 54.6992 61.4971 52.3555 61.4971C52.3262 61.5459 48.3027 61.7021 40.2852 61.9658C40.207 62.0049 40.1484 62.0244 40.1094 62.0244L39.9922 61.8486V41.9268C39.9922 41.8682 40.0508 41.8096 40.168 41.751ZM57.0723 40.9893C66.9844 41.9658 72.2188 42.4932 72.7754 42.5713L72.834 42.6885V47.3174C72.834 47.376 72.7754 47.4346 72.6582 47.4932C72.3359 47.4932 70.6367 47.5713 67.5605 47.7275C67.5605 48.7822 67.7363 53.4307 68.0879 61.6729L67.9121 61.79L62.4629 61.9658C62.3848 62.0049 62.3262 62.0244 62.2871 62.0244L62.1699 61.8486V47.4346L57.0723 47.3174L56.9551 47.1416V41.165L57.0723 40.9893ZM89.7383 41.5752L89.8555 41.751V54.876C89.8555 55.0322 88.6641 55.2666 86.2812 55.5791V55.8135C88.2148 58.8408 89.3867 60.6963 89.7969 61.3799L89.6797 61.4385C88.7617 61.4385 86.6523 61.5166 83.3516 61.6729C83.0684 61.4873 82.3457 60.4521 81.1836 58.5674C80.2461 57.1221 79.7383 56.3994 79.6602 56.3994L79.6016 56.5166L79.3672 61.7314C79.2695 61.8096 79.1914 61.8486 79.1328 61.8486C78.2148 61.8486 76.5352 61.9072 74.0938 62.0244L73.9766 61.8486V42.8057C73.9766 42.708 74.0547 42.6494 74.2109 42.6299L89.7383 41.5752ZM79.25 46.4385C79.0156 49.2607 78.8984 51.1943 78.8984 52.2393C79.3281 52.2393 81.0664 52.2002 84.1133 52.1221C84.1133 51.5166 84.0742 49.5049 83.9961 46.0869C83.5664 46.0869 81.9844 46.2041 79.25 46.4385ZM106.818 40.5205L106.936 40.6963V61.8486C106.936 61.9072 106.877 61.9658 106.76 62.0244C104.221 61.8975 102.951 61.7803 102.951 61.6729C102.951 61.2627 102.834 59.9346 102.6 57.6885C99.6504 57.6104 97.3799 57.5322 95.7881 57.4541V57.3516L95.334 61.1455L95.1582 61.2627C92.873 61.1064 91.5449 61.0283 91.1738 61.0283L91.0566 60.8525V41.6338C91.0566 41.4287 92.541 41.292 95.5098 41.2236C95.8516 41.1846 99.6211 40.9502 106.818 40.5205ZM96.3887 46.1602V52.9717H101.179C100.886 48.7822 100.739 46.5264 100.739 46.2041L100.651 46.1602H96.3887ZM108.195 41.8682L112.297 42.0439L112.355 42.1611C112.355 43.6553 112.297 45.9404 112.18 49.0166C112.619 49.0166 115.041 49.1143 119.445 49.3096L119.211 42.5127L119.387 42.3955L123.781 42.5713L123.898 42.7471V54.2314C123.898 54.29 123.84 54.3486 123.723 54.4072L118.977 54.0557C118.664 58.7725 118.508 61.3506 118.508 61.79C118.469 61.9463 118.371 62.0244 118.215 62.0244C115.1 61.9072 113.264 61.8486 112.707 61.8486C112.707 61.7705 112.668 61.7314 112.59 61.7314L113 53.2939C109.836 52.5029 108.176 52.0537 108.02 51.9463V42.0439C108.02 41.9854 108.078 41.9268 108.195 41.8682ZM125.393 41.751C125.881 41.751 131.076 41.9463 140.979 42.3369L141.096 42.5127V46.6729L140.979 46.8486C136.389 46.4189 133.42 46.2041 132.072 46.2041L131.545 49.9541H137.404C137.59 49.9541 137.727 50.9893 137.814 53.0596C137.863 53.0596 137.902 53.4307 137.932 54.1729C137.932 54.3682 137.053 54.5049 135.295 54.583C135.188 54.6221 133.918 54.7588 131.486 54.9932L131.838 57.8057C135.266 57.5713 138.312 57.3369 140.979 57.1025L141.096 57.2783V61.2041C141.096 61.3994 139.924 61.4971 137.58 61.4971C137.551 61.5459 133.527 61.7021 125.51 61.9658C125.432 62.0049 125.373 62.0244 125.334 62.0244L125.217 61.8486V41.9268C125.217 41.8682 125.275 41.8096 125.393 41.751ZM142.297 40.1104C142.375 40.1494 142.434 40.1689 142.473 40.1689C150.246 40.4326 154.133 40.6279 154.133 40.7549C156.75 43.7432 158.059 45.3057 158.059 45.4424V57.6299C158.059 57.8447 157.375 58.5869 156.008 59.8564C155.363 60.6768 154.797 61.0869 154.309 61.0869C146.496 61.6729 142.492 61.9854 142.297 62.0244L142.18 61.8486V40.2861L142.297 40.1104ZM147.688 45.9697C147.609 52.1416 147.57 55.4229 147.57 55.8135C147.531 56.3604 147.512 56.7119 147.512 56.8682H147.57C148.078 56.8682 149.934 56.7119 153.137 56.3994C153.137 54.3486 153.176 50.8525 153.254 45.9111H153.195C152.59 45.9111 150.754 45.9307 147.688 45.9697ZM73.8887 71.001H77.5605C77.7493 71.001 77.9447 71.3005 78.1465 71.8994L80.8809 77.4072H80.9199V77.3291C80.9199 77.0687 80.7767 74.9854 80.4902 71.0791L80.6074 71.001H84.2402C84.2793 71.001 84.3184 71.04 84.3574 71.1182V83.9307C84.3574 84.0479 83.6803 84.139 82.3262 84.2041C82.3262 84.2301 81.9746 84.2692 81.2715 84.3213C81.0371 84.1455 80.2168 83.0908 78.8105 81.1572L77.1309 79.0088L77.0918 79.0869V84.5947C77.0918 84.7184 76.2975 84.8226 74.709 84.9072C74.709 84.9593 74.4355 84.9854 73.8887 84.9854C73.8887 85.0114 73.8757 85.0244 73.8496 85.0244L73.7715 84.9072V71.1182C73.7715 71.0791 73.8105 71.04 73.8887 71.001ZM85.2754 71.001C92.1113 71.3135 95.6009 71.4958 95.7441 71.5479L95.7832 71.626V84.9072L95.7051 85.0244C89.429 84.764 85.9525 84.6338 85.2754 84.6338L85.1973 84.5166V71.1182L85.2754 71.001ZM88.5762 75.3174V80.6885C88.8691 80.7536 90.0801 80.9456 92.209 81.2646L92.1113 74.9365C89.8587 75.1709 88.6803 75.2979 88.5762 75.3174ZM96.7402 69.6338C99.0059 69.8031 100.139 69.9202 100.139 69.9854L99.6699 79.0479C99.8066 79.0479 100.419 78.501 101.506 77.4072L102.131 76.8604H102.209L104.084 80.0244H104.201C104.097 74.2171 104.032 70.988 104.006 70.3369L104.123 70.2588C106.18 70.415 107.209 70.5322 107.209 70.6104V84.9072L107.131 85.0244C105.178 84.8942 104.045 84.8291 103.732 84.8291C103.648 84.8291 103.205 84.0739 102.404 82.5635C102.118 82.0947 101.962 81.8604 101.936 81.8604H101.896L100.139 84.5947H100.1C98.1725 84.4645 97.0397 84.3994 96.7012 84.3994L96.623 84.2822V69.751C96.623 69.7119 96.6621 69.6729 96.7402 69.6338Z" fill="white"/>
<path d="M74.0254 12.6885L74.0667 11.6893L73.8089 11.6787L73.5782 11.794L74.0254 12.6885ZM84.416 13.1182L85.2481 12.5635L84.9658 12.14L84.4573 12.119L84.416 13.1182ZM84.4941 13.2354H85.4941V12.9326L85.3262 12.6807L84.4941 13.2354ZM78.127 16.8291L78.1185 15.8291L77.2146 15.8368L77.1312 16.7369L78.127 16.8291ZM77.541 23.1572L76.5453 23.065L76.4345 24.2616L77.6313 24.1531L77.541 23.1572ZM80.7441 22.8838V23.8838H81.7441V22.8838H80.7441ZM80.7051 20.3838V19.3838H79.6757L79.7055 20.4128L80.7051 20.3838ZM80.7832 20.3057L80.812 19.3061L79.7832 19.2765V20.3057H80.7832ZM84.4941 20.4619H85.4941V20.2258L85.3886 20.0147L84.4941 20.4619ZM81.877 26.3213L81.8248 25.3227L81.8065 25.3236L81.7882 25.3252L81.877 26.3213ZM73.9863 27.0244L73.1543 27.5791L73.4836 28.0732L74.0751 28.0205L73.9863 27.0244ZM73.9082 26.9072H72.9082V27.21L73.0762 27.4619L73.9082 26.9072ZM73.9841 13.6876L84.3747 14.1173L84.4573 12.119L74.0667 11.6893L73.9841 13.6876ZM83.584 13.6729L83.6621 13.7901L85.3262 12.6807L85.2481 12.5635L83.584 13.6729ZM83.4941 13.2354V16.6729H85.4941V13.2354H83.4941ZM83.4941 16.6729C83.4941 16.4679 83.5776 16.1688 83.8551 15.9607C84.0784 15.7932 84.2938 15.79 84.3379 15.79V17.79C84.4861 17.79 84.7796 17.7673 85.0551 17.5607C85.3846 17.3136 85.4941 16.9559 85.4941 16.6729H83.4941ZM84.3379 15.79C83.2718 15.79 81.1973 15.8031 78.1185 15.8291L78.1354 17.8291C81.2154 17.803 83.2816 17.79 84.3379 17.79V15.79ZM77.1312 16.7369L76.5453 23.065L78.5368 23.2494L79.1227 16.9213L77.1312 16.7369ZM77.6313 24.1531C78.6366 24.062 79.4044 23.9939 79.9356 23.9485C80.2015 23.9258 80.4061 23.909 80.5506 23.898C80.7185 23.8851 80.7612 23.8838 80.7441 23.8838V21.8838C80.6267 21.8838 80.265 21.9131 79.7655 21.9558C79.229 22.0016 78.4571 22.0701 77.4508 22.1613L77.6313 24.1531ZM81.7441 22.8838V22.3369H79.7441V22.8838H81.7441ZM81.7441 22.3369C81.7441 21.9177 81.7307 21.2542 81.7047 20.3548L79.7055 20.4128C79.7315 21.3103 79.7441 21.9489 79.7441 22.3369H81.7441ZM80.7051 21.3838C80.8853 21.3838 81.2041 21.3381 81.4708 21.0714C81.7375 20.8047 81.7832 20.4859 81.7832 20.3057H79.7832C79.7832 20.1776 79.8159 19.8978 80.0566 19.6572C80.2972 19.4165 80.577 19.3838 80.7051 19.3838V21.3838ZM80.7544 21.3053C81.66 21.3313 82.3236 21.3447 82.7363 21.3447V19.3447C82.3548 19.3447 81.7163 19.3321 80.812 19.3061L80.7544 21.3053ZM82.7363 21.3447H84.377V19.3447H82.7363V21.3447ZM84.377 21.3447C84.0377 21.3447 83.8179 21.1706 83.7284 21.0811C83.641 20.9937 83.6037 20.9171 83.5997 20.9091L85.3886 20.0147C85.3455 19.9286 85.2691 19.7934 85.1427 19.6669C85.0141 19.5384 84.7552 19.3447 84.377 19.3447V21.3447ZM83.4941 20.4619V26.0088H85.4941V20.4619H83.4941ZM83.4941 26.0088C83.4941 25.6815 83.6517 25.4554 83.7566 25.3443C83.8561 25.2389 83.9532 25.1851 83.9902 25.1658C84.0667 25.1259 84.1149 25.1173 84.0846 25.125C84.0402 25.1362 83.9287 25.1571 83.7213 25.1819C83.3193 25.2299 82.6921 25.2773 81.8248 25.3227L81.9291 27.3199C82.8066 27.2741 83.488 27.2239 83.9584 27.1678C84.1872 27.1404 84.4028 27.1076 84.5765 27.0635C84.6553 27.0435 84.7853 27.0069 84.9163 26.9385C84.9805 26.9049 85.0981 26.8368 85.2112 26.7169C85.3297 26.5913 85.4941 26.3508 85.4941 26.0088H83.4941ZM81.7882 25.3252L73.8976 26.0284L74.0751 28.0205L81.9657 27.3173L81.7882 25.3252ZM74.8184 26.4697L74.7403 26.3525L73.0762 27.4619L73.1543 27.5791L74.8184 26.4697ZM74.9082 26.9072V12.8057H72.9082V26.9072H74.9082ZM74.9082 12.8057C74.9082 13.1449 74.7341 13.3647 74.6446 13.4542C74.5572 13.5416 74.4806 13.5789 74.4726 13.5829L73.5782 11.794C73.4921 11.8371 73.3569 11.9135 73.2304 12.04C73.1019 12.1685 72.9082 12.4274 72.9082 12.8057H74.9082ZM85.334 13.5088V12.5088H85.0979L84.8868 12.6144L85.334 13.5088ZM95.7246 13.8994L96.5567 13.3447L96.2737 12.9203L95.764 12.9002L95.7246 13.8994ZM95.8027 14.0166H96.8027V13.7138L96.6348 13.4619L95.8027 14.0166ZM95.8027 16.79L96.6348 17.3447L96.8027 17.0928V16.79H95.8027ZM95.7246 16.9072L95.6314 17.9029L96.2256 17.9585L96.5567 17.4619L95.7246 16.9072ZM89.7871 16.4775V15.4775H88.9179L88.7969 16.3383L89.7871 16.4775ZM89.4355 18.9775L88.4453 18.8383L88.2851 19.9775H89.4355V18.9775ZM93.6152 21.0479L92.6161 21.0903L92.6568 22.0479H93.6152V21.0479ZM93.6934 21.79H94.6934V21.7703L94.6926 21.7506L93.6934 21.79ZM91.9355 22.0635L91.8911 21.0645L91.7379 21.0713L91.5938 21.1237L91.9355 22.0635ZM89.3965 22.3369L89.3005 21.3415L88.2766 21.4402L88.4042 22.4609L89.3965 22.3369ZM89.6309 24.2119L88.6386 24.3359L88.7558 25.2741L89.6991 25.2096L89.6309 24.2119ZM95.7246 23.7432L96.5567 23.1885L96.2277 22.6951L95.637 22.747L95.7246 23.7432ZM95.8027 23.8604H96.8027V23.5576L96.6348 23.3057L95.8027 23.8604ZM93.459 26.6729V25.6729H92.8928L92.6015 26.1584L93.459 26.6729ZM85.4121 26.9854L85.3792 25.9859L85.1606 25.9931L84.9649 26.0909L85.4121 26.9854ZM85.2949 27.0244L84.4629 27.5791L84.7597 28.0244H85.2949V27.0244ZM85.2168 26.9072H84.2168V27.21L84.3848 27.4619L85.2168 26.9072ZM85.334 14.5088C85.6333 14.5088 89.0622 14.6374 95.6852 14.8986L95.764 12.9002C89.1839 12.6406 85.6857 12.5088 85.334 12.5088V14.5088ZM94.8926 14.4541L94.9707 14.5713L96.6348 13.4619L96.5567 13.3447L94.8926 14.4541ZM94.8027 14.0166V16.79H96.8027V14.0166H94.8027ZM94.9707 16.2353L94.8926 16.3525L96.5567 17.4619L96.6348 17.3447L94.9707 16.2353ZM95.8178 15.9116C92.7702 15.6263 90.7415 15.4775 89.7871 15.4775V17.4775C90.6296 17.4775 92.5592 17.6153 95.6314 17.9029L95.8178 15.9116ZM88.7969 16.3383L88.4453 18.8383L90.4258 19.1168L90.7774 16.6168L88.7969 16.3383ZM89.4355 19.9775H93.3418V17.9775H89.4355V19.9775ZM93.3418 19.9775C92.8467 19.9775 92.6001 19.6325 92.5558 19.5664C92.5194 19.512 92.4988 19.4676 92.4895 19.446C92.4794 19.4225 92.4746 19.4072 92.4737 19.4042C92.4722 19.3995 92.4769 19.4141 92.4851 19.4571C92.4929 19.4978 92.5019 19.5533 92.5115 19.6261C92.5511 19.9255 92.5871 20.407 92.6161 21.0903L94.6143 21.0054C94.5847 20.3085 94.5459 19.7548 94.4943 19.3642C94.4696 19.1768 94.4361 18.9793 94.3833 18.8097C94.359 18.7318 94.311 18.5929 94.2175 18.4534C94.1444 18.3442 93.8679 17.9775 93.3418 17.9775V19.9775ZM93.6152 22.0479C93.274 22.0479 93.0392 21.8799 92.9234 21.767C92.8134 21.6598 92.756 21.5532 92.7327 21.5067C92.6846 21.4104 92.6673 21.3329 92.6653 21.3247C92.6575 21.2917 92.6593 21.2866 92.6647 21.3381C92.6741 21.4281 92.6846 21.587 92.6941 21.8295L94.6926 21.7506C94.6826 21.4982 94.6702 21.2861 94.6537 21.1287C94.6461 21.0565 94.634 20.9587 94.6115 20.8638C94.6022 20.8246 94.5774 20.724 94.5216 20.6122C94.4944 20.5579 94.4331 20.4456 94.3191 20.3345C94.1993 20.2178 93.9605 20.0479 93.6152 20.0479V22.0479ZM92.6934 21.79C92.6934 21.3902 92.9269 21.15 93.0308 21.0646C93.1339 20.9798 93.222 20.948 93.2301 20.9449C93.2554 20.9353 93.2275 20.9481 93.1002 20.9679C92.8634 21.0048 92.4685 21.0388 91.8911 21.0645L91.9799 23.0625C92.5744 23.0361 93.0585 22.9985 93.4076 22.9442C93.5733 22.9184 93.7651 22.8807 93.9369 22.8158C94.0182 22.7851 94.1612 22.7244 94.301 22.6095C94.4415 22.4939 94.6934 22.2224 94.6934 21.79H92.6934ZM91.5938 21.1237C91.693 21.0876 91.7753 21.0791 91.7149 21.0888C91.6967 21.0917 91.6632 21.0965 91.6099 21.1033C91.505 21.1167 91.3495 21.1346 91.14 21.1571C90.7225 21.2021 90.1101 21.2635 89.3005 21.3415L89.4924 23.3323C90.304 23.2541 90.9253 23.1918 91.3541 23.1456C91.5678 23.1226 91.7387 23.1031 91.8632 23.0872C91.9247 23.0793 91.9817 23.0715 92.0299 23.0638C92.0357 23.0629 92.1602 23.0458 92.2773 23.0033L91.5938 21.1237ZM88.4042 22.4609L88.6386 24.3359L90.6231 24.0879L90.3888 22.2129L88.4042 22.4609ZM89.6991 25.2096C91.989 25.053 94.0269 24.8963 95.8122 24.7393L95.637 22.747C93.8676 22.9026 91.843 23.0583 89.5626 23.2142L89.6991 25.2096ZM94.8926 24.2979L94.9707 24.4151L96.6348 23.3057L96.5567 23.1885L94.8926 24.2979ZM94.8027 23.8604V26.4775H96.8027V23.8604H94.8027ZM94.8027 26.4775C94.8027 25.9347 95.2095 25.6903 95.2622 25.6595C95.3177 25.6272 95.3617 25.6102 95.3807 25.6034C95.3918 25.5993 95.4003 25.5967 95.4053 25.5952C95.4105 25.5937 95.4134 25.5929 95.4137 25.5928C95.414 25.5928 95.4078 25.5943 95.3935 25.5969C95.3796 25.5995 95.3605 25.6026 95.3356 25.6061C95.2852 25.6131 95.2186 25.6204 95.1338 25.6275C94.7861 25.6565 94.234 25.6729 93.459 25.6729V27.6729C94.2465 27.6729 94.8663 27.6567 95.2998 27.6206C95.5086 27.6032 95.7204 27.5777 95.8988 27.5331C95.9798 27.5129 96.1239 27.4723 96.27 27.3871C96.3716 27.3278 96.8027 27.053 96.8027 26.4775H94.8027ZM92.6015 26.1584C92.7404 25.9269 92.9316 25.8219 92.9756 25.7977C93.0469 25.7584 93.1073 25.7368 93.1354 25.7273C93.1942 25.7073 93.2408 25.698 93.2541 25.6954C93.2736 25.6915 93.2881 25.6893 93.2943 25.6884C93.3015 25.6873 93.3061 25.6868 93.3071 25.6867C93.3074 25.6866 93.2924 25.6882 93.2534 25.6911C93.1796 25.6966 93.0616 25.7035 92.8945 25.712C92.5629 25.7288 92.0635 25.7501 91.3938 25.7761C90.0557 25.8281 88.0513 25.898 85.3792 25.9859L85.445 27.9848C88.118 27.8969 90.1272 27.8268 91.4714 27.7746C92.1429 27.7486 92.6518 27.7268 92.9956 27.7094C93.1663 27.7008 93.3028 27.6929 93.4003 27.6857C93.4469 27.6823 93.4968 27.6781 93.5411 27.6729C93.56 27.6707 93.5995 27.6658 93.6446 27.6569C93.6637 27.6531 93.7148 27.6426 93.7768 27.6216C93.8065 27.6116 93.8682 27.5894 93.9405 27.5496C93.9854 27.5248 94.1773 27.4193 94.3165 27.1873L92.6015 26.1584ZM84.9649 26.0909C84.9653 26.0907 84.988 26.0791 85.0275 26.066C85.0482 26.0591 85.08 26.0496 85.1208 26.0414C85.1606 26.0334 85.2205 26.0244 85.2949 26.0244V28.0244C85.5758 28.0244 85.7994 27.9097 85.8593 27.8798L84.9649 26.0909ZM86.127 26.4697L86.0488 26.3525L84.3848 27.4619L84.4629 27.5791L86.127 26.4697ZM86.2168 26.9072V13.626H84.2168V26.9072H86.2168ZM86.2168 13.626C86.2168 13.9652 86.0427 14.185 85.9532 14.2745C85.8658 14.3619 85.7892 14.3992 85.7812 14.4032L84.8868 12.6144C84.8007 12.6574 84.6655 12.7338 84.539 12.8603C84.4105 12.9888 84.2168 13.2477 84.2168 13.626H86.2168ZM96.6035 13.001L96.7016 12.0058L96.1043 11.947L95.7715 12.4463L96.6035 13.001ZM107.072 14.0557L107.967 13.6085L107.732 13.1384L107.211 13.0654L107.072 14.0557ZM107.111 14.1338H108.111V13.8977L108.006 13.6866L107.111 14.1338ZM106.994 17.3369V18.3369H107.23L107.441 18.2313L106.994 17.3369ZM103.596 17.4932L103.545 16.4945L102.596 16.5427V17.4932H103.596ZM103.947 26.79L104.502 27.6221L104.97 27.3098L104.946 26.7474L103.947 26.79ZM103.83 26.8682L103.862 27.8676L104.147 27.8584L104.385 27.7002L103.83 26.8682ZM100.197 26.9854L100.165 25.9859L99.946 25.9929L99.7501 26.0909L100.197 26.9854ZM100.08 27.0244L99.248 27.5791L99.5449 28.0244H100.08V27.0244ZM100.002 26.9072H99.002V27.21L99.1699 27.4619L100.002 26.9072ZM100.002 17.2979H101.002V16.3206L100.025 16.2981L100.002 17.2979ZM96.6035 17.2197L95.7715 17.7744L96.0602 18.2075L96.5805 18.2195L96.6035 17.2197ZM96.5254 17.1025H95.5254V17.4053L95.6933 17.6572L96.5254 17.1025ZM96.5254 13.1182L95.6933 12.5635L95.5254 12.8154V13.1182H96.5254ZM96.5055 13.9962C103.135 14.6493 106.589 14.9977 106.933 15.046L107.211 13.0654C106.813 13.0095 103.288 12.6547 96.7016 12.0058L96.5055 13.9962ZM106.178 14.5029L106.217 14.581L108.006 13.6866L107.967 13.6085L106.178 14.5029ZM106.111 14.1338V17.2197H108.111V14.1338H106.111ZM106.111 17.2197C106.111 16.8805 106.285 16.6607 106.375 16.5712C106.462 16.4838 106.539 16.4465 106.547 16.4425L107.441 18.2313C107.527 18.1883 107.663 18.1119 107.789 17.9854C107.918 17.8569 108.111 17.598 108.111 17.2197H106.111ZM106.994 16.3369C106.746 16.3369 105.574 16.3914 103.545 16.4945L103.646 18.4919C105.719 18.3866 106.813 18.3369 106.994 18.3369V16.3369ZM102.596 17.4932C102.596 18.224 102.714 21.3541 102.948 26.8327L104.946 26.7474C104.711 21.2364 104.596 18.1686 104.596 17.4932H102.596ZM103.393 25.958L103.275 26.0361L104.385 27.7002L104.502 27.6221L103.393 25.958ZM103.798 25.8687L100.165 25.9859L100.23 27.9848L103.862 27.8676L103.798 25.8687ZM99.7501 26.0909C99.7505 26.0907 99.7732 26.0791 99.8127 26.066C99.8333 26.0591 99.8651 26.0496 99.9059 26.0414C99.9457 26.0334 100.006 26.0244 100.08 26.0244V28.0244C100.361 28.0244 100.585 27.9097 100.644 27.8798L99.7501 26.0909ZM100.912 26.4697L100.834 26.3525L99.1699 27.4619L99.248 27.5791L100.912 26.4697ZM101.002 26.9072V17.2979H99.002V26.9072H101.002ZM100.025 16.2981L96.6265 16.22L96.5805 18.2195L99.979 18.2976L100.025 16.2981ZM97.4356 16.665L97.3574 16.5478L95.6933 17.6572L95.7715 17.7744L97.4356 16.665ZM97.5254 17.1025V13.1182H95.5254V17.1025H97.5254ZM97.3574 13.6729L97.4356 13.5557L95.7715 12.4463L95.6933 12.5635L97.3574 13.6729ZM23.1465 41.6924L23.1865 40.6932L22.9294 40.6829L22.6993 40.798L23.1465 41.6924ZM36.3301 42.2197L36.2901 43.2189L36.3101 43.2197H36.3301V42.2197ZM38.6152 45.3838L37.785 45.9411L37.8684 46.0655L37.9846 46.1599L38.6152 45.3838ZM36.916 53.1768L36.269 52.4142L36.1834 52.4869L36.116 52.5768L36.916 53.1768ZM36.7402 53.4111L35.9402 52.8111L35.7402 53.0778V53.4111H36.7402ZM36.7402 53.5283H35.7402V54.0048L36.1103 54.3049L36.7402 53.5283ZM38.8496 55.4619H39.8496V55.4307L39.8477 55.3995L38.8496 55.4619ZM36.0371 62.0244L35.9873 63.0232L36.413 63.0444L36.7231 62.7521L36.0371 62.0244ZM23.0879 61.4385L22.2558 61.9932L22.5527 62.4385H23.0879V61.4385ZM22.9707 61.2627H21.9707V61.5655L22.1387 61.8174L22.9707 61.2627ZM28.127 45.6182L28.2276 44.6232L27.127 44.5119V45.6182H28.127ZM28.127 51.3604H27.127V52.3604H28.127V51.3604ZM34.0449 46.2627L35.0409 46.3527L35.1243 45.4288L34.2093 45.2763L34.0449 46.2627ZM27.7754 54.8174L27.8184 53.8183L26.809 53.7749L26.7759 54.7846L27.7754 54.8174ZM27.7168 58.6846H26.7168V59.7087L27.7406 59.6843L27.7168 58.6846ZM33.5176 58.5674V59.5674H34.5176V58.5674H33.5176ZM33.2246 55.0518L34.2189 54.9454L34.1274 54.0897L33.2676 54.0527L33.2246 55.0518ZM23.1065 42.6916L36.2901 43.2189L36.37 41.2205L23.1865 40.6932L23.1065 42.6916ZM36.3301 43.2197C36.0023 43.2197 35.7881 43.0539 35.7862 43.0526C35.7343 43.0164 35.7044 42.9866 35.7037 42.9859C35.6983 42.9807 35.7152 42.9972 35.7616 43.0534C35.8496 43.1602 35.9843 43.3374 36.1713 43.5962C36.5418 44.1093 37.0786 44.8888 37.785 45.9411L39.4455 44.8264C38.7359 43.7694 38.1838 42.9669 37.7926 42.4253C37.5987 42.1568 37.4343 41.9384 37.305 41.7815C37.2428 41.706 37.1715 41.6235 37.0984 41.5524C37.0637 41.5187 37.0051 41.4643 36.9296 41.4116C36.9041 41.3938 36.6713 41.2197 36.3301 41.2197V43.2197ZM37.9846 46.1599C37.9246 46.1111 37.8838 46.0499 37.8625 45.9969C37.844 45.9506 37.8496 45.9341 37.8496 45.9697H39.8496C39.8496 45.5053 39.7039 44.9799 39.2458 44.6077L37.9846 46.1599ZM37.8496 45.9697V51.1846H39.8496V45.9697H37.8496ZM37.8496 51.1846C37.8496 51.0032 37.9062 50.8845 37.9149 50.8662C37.9294 50.8353 37.9358 50.8307 37.9162 50.858C37.8772 50.9124 37.795 51.0112 37.6486 51.1619C37.3601 51.4592 36.9055 51.8742 36.269 52.4142L37.563 53.9393C38.2156 53.3855 38.7278 52.9216 39.0838 52.5549C39.2597 52.3736 39.4192 52.194 39.5413 52.0238C39.6023 51.9388 39.6691 51.8354 39.7239 51.719C39.7728 51.6153 39.8496 51.4245 39.8496 51.1846H37.8496ZM36.116 52.5768L35.9402 52.8111L37.5402 54.0111L37.716 53.7768L36.116 52.5768ZM35.7402 53.4111V53.5283H37.7402V53.4111H35.7402ZM36.1103 54.3049C36.8039 54.8676 37.3102 55.2969 37.6392 55.5985C37.806 55.7514 37.9096 55.8555 37.9654 55.9181C37.9946 55.9509 37.9928 55.9526 37.978 55.93C37.9703 55.9184 37.9487 55.8844 37.9256 55.8326C37.9059 55.788 37.8612 55.6778 37.8516 55.5243L39.8477 55.3995C39.8288 55.0985 39.6821 54.8814 39.6489 54.8308C39.5883 54.7387 39.5191 54.6556 39.4592 54.5882C39.3367 54.4507 39.1754 54.2935 38.9907 54.1242C38.6165 53.7812 38.073 53.3218 37.3702 52.7517L36.1103 54.3049ZM37.8496 55.4619V59.0361H39.8496V55.4619H37.8496ZM37.8496 59.0361C37.8496 58.8888 37.8852 58.7829 37.8992 58.7444C37.9161 58.6983 37.9315 58.6708 37.9337 58.667C37.9375 58.6603 37.9254 58.682 37.8807 58.7401C37.7937 58.8535 37.6444 59.026 37.4183 59.2663C36.9703 59.7423 36.2844 60.417 35.3512 61.2968L36.7231 62.7521C37.6648 61.8643 38.3852 61.1571 38.8747 60.637C39.1173 60.3792 39.3196 60.1502 39.4669 59.9583C39.5394 59.8639 39.6153 59.7572 39.6776 59.6461C39.716 59.5778 39.8496 59.3419 39.8496 59.0361H37.8496ZM36.0869 61.0257C28.2764 60.6361 23.9213 60.4385 23.0879 60.4385V62.4385C23.856 62.4385 28.1338 62.6315 35.9873 63.0232L36.0869 61.0257ZM23.9199 60.8838L23.8028 60.708L22.1387 61.8174L22.2558 61.9932L23.9199 60.8838ZM23.9707 61.2627V41.8682H21.9707V61.2627H23.9707ZM23.9707 41.8682C23.9707 42.1976 23.8015 42.4077 23.7218 42.4874C23.6792 42.5299 23.643 42.5559 23.6243 42.5684C23.6141 42.5752 23.6063 42.5798 23.6014 42.5826C23.5966 42.5854 23.5938 42.5867 23.5937 42.5868L22.6993 40.798C22.5936 40.8508 22.4438 40.9369 22.3075 41.0732C22.1692 41.2115 21.9707 41.4801 21.9707 41.8682H23.9707ZM27.127 45.6182V51.3604H29.127V45.6182H27.127ZM28.127 52.3604H33.5176V50.3604H28.127V52.3604ZM33.5176 52.3604C33.7108 52.3604 34.0394 52.3114 34.3126 52.0382C34.5858 51.7649 34.6348 51.4364 34.6348 51.2432H32.6348C32.6348 51.1281 32.6642 50.8581 32.8984 50.6239C33.1325 50.3898 33.4025 50.3604 33.5176 50.3604V52.3604ZM34.6348 51.2432C34.6348 51.2433 34.6348 51.2406 34.6349 51.2343C34.6351 51.2281 34.6353 51.2198 34.6357 51.209C34.6365 51.1873 34.6378 51.1589 34.6397 51.123C34.6436 51.051 34.6496 50.9562 34.658 50.8369C34.6746 50.5987 34.6999 50.2738 34.7339 49.8604C34.802 49.0343 34.9042 47.8655 35.0409 46.3527L33.049 46.1727C32.7791 49.1603 32.6348 50.891 32.6348 51.2432H34.6348ZM34.2093 45.2763C33.6994 45.1913 31.6806 44.9724 28.2276 44.6232L28.0263 46.6131C31.5264 46.967 33.4529 47.1778 33.8805 47.2491L34.2093 45.2763ZM26.7759 54.7846C26.7368 55.9778 26.7168 56.8704 26.7168 57.4541H28.7168C28.7168 56.905 28.7358 56.0398 28.7749 54.8502L26.7759 54.7846ZM26.7168 57.4541V58.6846H28.7168V57.4541H26.7168ZM27.7406 59.6843C31.0288 59.606 32.9468 59.5674 33.5176 59.5674V57.5674C32.9165 57.5674 30.9673 57.6069 27.693 57.6849L27.7406 59.6843ZM34.5176 58.5674V58.5088H32.5176V58.5674H34.5176ZM34.5176 58.5088C34.5176 57.9652 34.4123 56.7532 34.2189 54.9454L32.2303 55.1581C32.4276 57.0026 32.5176 58.0953 32.5176 58.5088H34.5176ZM33.2676 54.0527L27.8184 53.8183L27.7324 55.8165L33.1816 56.0508L33.2676 54.0527ZM40.168 41.751V40.751H39.9319L39.7208 40.8566L40.168 41.751ZM55.7539 42.3369L56.586 41.7822L56.303 41.3578L55.7933 41.3377L55.7539 42.3369ZM55.8711 42.5127H56.8711V42.2099L56.7031 41.958L55.8711 42.5127ZM55.8711 46.6729L56.7031 47.2276L56.8711 46.9756V46.6729H55.8711ZM55.7539 46.8486L55.6607 47.8443L56.2549 47.8999L56.586 47.4033L55.7539 46.8486ZM46.8477 46.2041V45.2041H45.9784L45.8574 46.0648L46.8477 46.2041ZM46.3203 49.9541L45.3301 49.8148L45.1698 50.9541H46.3203V49.9541ZM52.5898 53.0596L51.5907 53.102L51.6314 54.0596H52.5898V53.0596ZM52.707 54.1729H53.707V54.1531L53.7063 54.1334L52.707 54.1729ZM50.0703 54.583L50.0259 53.584L49.8727 53.5908L49.7286 53.6432L50.0703 54.583ZM46.2617 54.9932L46.1658 53.9978L45.1418 54.0965L45.2694 55.1172L46.2617 54.9932ZM46.6133 57.8057L45.621 57.9297L45.7383 58.8678L46.6815 58.8033L46.6133 57.8057ZM55.7539 57.1025L56.586 56.5478L56.257 56.0545L55.6663 56.1064L55.7539 57.1025ZM55.8711 57.2783H56.8711V56.9755L56.7031 56.7236L55.8711 57.2783ZM52.3555 61.4971V60.4971H51.7893L51.498 60.9826L52.3555 61.4971ZM40.2852 61.9658L40.2523 60.9664L40.0336 60.9736L39.8379 61.0714L40.2852 61.9658ZM40.1094 62.0244L39.2773 62.5791L39.5742 63.0244H40.1094V62.0244ZM39.9922 61.8486H38.9922V62.1514L39.1601 62.4033L39.9922 61.8486ZM40.168 42.751C40.6301 42.751 45.7907 42.9447 55.7145 43.3361L55.7933 41.3377C45.9124 40.9479 40.6824 40.751 40.168 40.751V42.751ZM54.9219 42.8916L55.039 43.0674L56.7031 41.958L56.586 41.7822L54.9219 42.8916ZM54.8711 42.5127V46.6729H56.8711V42.5127H54.8711ZM55.039 46.1182L54.9219 46.2939L56.586 47.4033L56.7031 47.2276L55.039 46.1182ZM55.8471 45.853C51.2696 45.4244 48.2512 45.2041 46.8477 45.2041V47.2041C48.1394 47.2041 51.0586 47.4134 55.6607 47.8443L55.8471 45.853ZM45.8574 46.0648L45.3301 49.8148L47.3106 50.0934L47.8379 46.3434L45.8574 46.0648ZM46.3203 50.9541H52.1797V48.9541H46.3203V50.9541ZM52.1797 50.9541C51.6923 50.9541 51.4532 50.6144 51.4161 50.5591C51.3588 50.4735 51.3456 50.4155 51.3549 50.4454C51.3692 50.4915 51.3978 50.6174 51.43 50.8614C51.4923 51.3334 51.5471 52.0737 51.5907 53.102L53.5889 53.0172C53.5447 51.9752 53.4872 51.1627 53.4128 50.5995C53.3766 50.3259 53.3307 50.0637 53.2645 49.8509C53.2335 49.7515 53.1785 49.5964 53.0778 49.4461C52.9975 49.3261 52.7135 48.9541 52.1797 48.9541V50.9541ZM52.5898 54.0596C52.2496 54.0596 52.0159 53.8921 51.901 53.7801C51.792 53.6739 51.7356 53.5688 51.7133 53.5242C51.667 53.4317 51.6517 53.3601 51.6516 53.3596C51.6474 53.342 51.6526 53.3602 51.6613 53.4426C51.6772 53.5944 51.6934 53.8462 51.7078 54.2123L53.7063 54.1334C53.6914 53.7574 53.6733 53.4524 53.6503 53.2332C53.6394 53.13 53.6239 53.009 53.5977 52.8987C53.5866 52.8518 53.5599 52.7454 53.5021 52.6298C53.474 52.5735 53.4117 52.4597 53.2967 52.3477C53.1759 52.23 52.9362 52.0596 52.5898 52.0596V54.0596ZM51.707 54.1729C51.707 53.7812 51.936 53.5488 52.0307 53.4709C52.0828 53.4281 52.1266 53.4032 52.1489 53.3915C52.1725 53.3791 52.1874 53.3734 52.1888 53.3729C52.1901 53.3724 52.1682 53.3804 52.1124 53.3932C52.0591 53.4055 51.9873 53.4193 51.8941 53.4338C51.5108 53.4934 50.8963 53.5453 50.0259 53.584L50.1147 55.582C51.0022 55.5426 51.706 55.4871 52.2016 55.41C52.4405 55.3728 52.6872 55.3226 52.8956 55.2438C52.9953 55.2062 53.152 55.1382 53.3009 55.0158C53.4506 54.8927 53.707 54.6133 53.707 54.1729H51.707ZM49.7286 53.6432C49.8232 53.6088 49.8951 53.6024 49.818 53.6147C49.7833 53.6203 49.7272 53.6282 49.6452 53.6387C49.4829 53.6594 49.2458 53.6866 48.9305 53.7206C48.3014 53.7883 47.3806 53.8807 46.1658 53.9978L46.3577 55.9886C47.5745 55.8713 48.5042 55.7781 49.1447 55.7091C49.4641 55.6747 49.7166 55.6458 49.8985 55.6226C49.9887 55.6111 50.0683 55.6001 50.1331 55.5897C50.1555 55.5862 50.2905 55.567 50.4121 55.5228L49.7286 53.6432ZM45.2694 55.1172L45.621 57.9297L47.6056 57.6816L47.254 54.8691L45.2694 55.1172ZM46.6815 58.8033C50.114 58.5686 53.1675 58.3338 55.8415 58.0987L55.6663 56.1064C53.0083 56.3401 49.968 56.5739 46.5451 56.808L46.6815 58.8033ZM54.9219 57.6572L55.039 57.833L56.7031 56.7236L56.586 56.5478L54.9219 57.6572ZM54.8711 57.2783V61.2041H56.8711V57.2783H54.8711ZM54.8711 61.2041C54.8711 60.6694 55.2718 60.4326 55.3123 60.409C55.3973 60.3594 55.4499 60.3519 55.4088 60.3621C55.3431 60.3786 55.1886 60.404 54.9091 60.4273C54.3661 60.4725 53.5211 60.4971 52.3555 60.4971V62.4971C53.5336 62.4971 54.4464 62.4728 55.0752 62.4204C55.3817 62.3948 55.6667 62.3592 55.8939 62.3024C55.9993 62.2761 56.1618 62.2289 56.32 62.1365C56.4338 62.0702 56.8711 61.7877 56.8711 61.2041H54.8711ZM51.498 60.9826C51.6368 60.7513 51.8279 60.6464 51.8716 60.6223C51.9427 60.5831 52.0028 60.5616 52.0304 60.5523C52.0884 60.5326 52.134 60.5236 52.1457 60.5212C52.1763 60.5151 52.1948 60.5133 52.1862 60.5144C52.1754 60.5156 52.1443 60.5187 52.0838 60.5231C51.9671 60.5317 51.7855 60.5424 51.5341 60.5551C51.0335 60.5804 50.2821 60.6126 49.2771 60.6516C47.2685 60.7296 44.2606 60.8345 40.2523 60.9664L40.318 62.9653C44.3273 62.8334 47.3399 62.7284 49.3547 62.6501C50.3615 62.611 51.1225 62.5785 51.6351 62.5526C51.8903 62.5396 52.0904 62.528 52.2307 62.5177C52.2987 62.5127 52.3649 62.5071 52.4201 62.5006C52.4445 62.4977 52.4883 62.4923 52.5363 62.4827C52.5568 62.4786 52.6091 62.4679 52.6719 62.4466C52.702 62.4364 52.764 62.4141 52.8365 62.3742C52.8817 62.3493 53.0737 62.2436 53.213 62.0116L51.498 60.9826ZM39.8379 61.0714C39.8254 61.0777 39.8367 61.071 39.8664 61.0611C39.8822 61.0558 39.9095 61.0475 39.9462 61.0402C39.9819 61.033 40.0382 61.0244 40.1094 61.0244V63.0244C40.4033 63.0244 40.6464 62.9032 40.7324 62.8602L39.8379 61.0714ZM40.9414 61.4697L40.8242 61.2939L39.1601 62.4033L39.2773 62.5791L40.9414 61.4697ZM40.9922 61.8486V41.9268H38.9922V61.8486H40.9922ZM40.9922 41.9268C40.9922 42.2562 40.8229 42.4663 40.7432 42.546C40.7007 42.5885 40.6644 42.6145 40.6458 42.627C40.6356 42.6338 40.6277 42.6384 40.6229 42.6412C40.618 42.644 40.6153 42.6453 40.6152 42.6454L39.7208 40.8566C39.6151 40.9094 39.4653 40.9955 39.329 41.1318C39.1907 41.2701 38.9922 41.5387 38.9922 41.9268H40.9922ZM57.0723 40.9893L57.1703 39.9941L56.5731 39.9352L56.2402 40.4346L57.0723 40.9893ZM72.7754 42.5713L73.6698 42.1241L73.4348 41.654L72.9144 41.581L72.7754 42.5713ZM72.834 42.6885H73.834V42.4524L73.7284 42.2413L72.834 42.6885ZM72.6582 47.4932V48.4932H72.8943L73.1054 48.3876L72.6582 47.4932ZM67.5605 47.7275L67.5098 46.7288L66.5605 46.777V47.7275H67.5605ZM68.0879 61.6729L68.6426 62.5049L69.111 62.1926L69.087 61.6302L68.0879 61.6729ZM67.9121 61.79L67.9444 62.7895L68.2295 62.7803L68.4668 62.6221L67.9121 61.79ZM62.4629 61.9658L62.4306 60.9663L62.2117 60.9734L62.0157 61.0714L62.4629 61.9658ZM62.2871 62.0244L61.4551 62.5791L61.7519 63.0244H62.2871V62.0244ZM62.1699 61.8486H61.1699V62.1514L61.3379 62.4033L62.1699 61.8486ZM62.1699 47.4346H63.1699V46.4573L62.1929 46.4348L62.1699 47.4346ZM57.0723 47.3174L56.2402 47.8721L56.5289 48.3052L57.0493 48.3171L57.0723 47.3174ZM56.9551 47.1416H55.9551V47.4444L56.123 47.6963L56.9551 47.1416ZM56.9551 41.165L56.123 40.6103L55.9551 40.8623V41.165H56.9551ZM56.9742 41.9844C66.908 42.9631 72.1068 43.4873 72.6364 43.5616L72.9144 41.581C72.3307 41.4991 67.0607 40.9685 57.1703 39.9941L56.9742 41.9844ZM71.881 43.0185L71.9396 43.1357L73.7284 42.2413L73.6698 42.1241L71.881 43.0185ZM71.834 42.6885V47.3174H73.834V42.6885H71.834ZM71.834 47.3174C71.834 46.9879 72.0032 46.7779 72.0829 46.6982C72.1255 46.6556 72.1617 46.6296 72.1804 46.6172C72.1906 46.6104 72.1984 46.6057 72.2033 46.6029C72.2081 46.6002 72.2109 46.5988 72.211 46.5987L73.1054 48.3876C73.2111 48.3348 73.3609 48.2486 73.4971 48.1124C73.6354 47.9741 73.834 47.7054 73.834 47.3174H71.834ZM72.6582 46.4932C72.3027 46.4932 70.5644 46.5737 67.5098 46.7288L67.6113 48.7262C70.7091 48.5689 72.3692 48.4932 72.6582 48.4932V46.4932ZM66.5605 47.7275C66.5605 48.8099 66.7379 53.4895 67.0888 61.7155L69.087 61.6302C68.7347 53.3718 68.5605 48.7545 68.5605 47.7275H66.5605ZM67.5332 60.8408L67.3574 60.958L68.4668 62.6221L68.6426 62.5049L67.5332 60.8408ZM67.8799 60.7906L62.4306 60.9663L62.4951 62.9653L67.9444 62.7895L67.8799 60.7906ZM62.0157 61.0714C62.0031 61.0777 62.0144 61.071 62.0441 61.0611C62.0599 61.0558 62.0872 61.0475 62.124 61.0402C62.1597 61.033 62.216 61.0244 62.2871 61.0244V63.0244C62.581 63.0244 62.8241 62.9032 62.9101 62.8602L62.0157 61.0714ZM63.1192 61.4697L63.002 61.2939L61.3379 62.4033L61.4551 62.5791L63.1192 61.4697ZM63.1699 61.8486V47.4346H61.1699V61.8486H63.1699ZM62.1929 46.4348L57.0952 46.3176L57.0493 48.3171L62.1469 48.4343L62.1929 46.4348ZM57.9043 46.7627L57.7871 46.5869L56.123 47.6963L56.2402 47.8721L57.9043 46.7627ZM57.9551 47.1416V41.165H55.9551V47.1416H57.9551ZM57.7871 41.7197L57.9043 41.544L56.2402 40.4346L56.123 40.6103L57.7871 41.7197ZM89.7383 41.5752L90.5703 41.0205L90.2488 40.5382L89.6705 40.5775L89.7383 41.5752ZM89.8555 41.751H90.8555V41.4482L90.6875 41.1963L89.8555 41.751ZM86.2812 55.5791L86.1512 54.5876L85.2812 54.7017V55.5791H86.2812ZM86.2812 55.8135H85.2812V56.1056L85.4385 56.3518L86.2812 55.8135ZM89.7969 61.3799L90.2441 62.2743L91.21 61.7914L90.6544 60.8654L89.7969 61.3799ZM89.6797 61.4385V62.4385H89.9158L90.1269 62.3329L89.6797 61.4385ZM83.3516 61.6729L82.8035 62.5093L83.0749 62.6871L83.3988 62.6717L83.3516 61.6729ZM81.1836 58.5674L82.0348 58.0425L82.0288 58.0328L82.0226 58.0232L81.1836 58.5674ZM79.6602 56.3994V55.3994H79.0421L78.7657 55.9522L79.6602 56.3994ZM79.6016 56.5166L78.7071 56.0694L78.6121 56.2594L78.6026 56.4717L79.6016 56.5166ZM79.3672 61.7314L79.9919 62.5123L80.3458 62.2292L80.3662 61.7763L79.3672 61.7314ZM74.0938 62.0244L73.2617 62.5791L73.5759 63.0504L74.1417 63.0233L74.0938 62.0244ZM73.9766 61.8486H72.9766V62.1514L73.1445 62.4033L73.9766 61.8486ZM74.2109 42.6299L74.1432 41.6322L74.115 41.6341L74.0869 41.6376L74.2109 42.6299ZM79.25 46.4385L79.1646 45.4421L78.3233 45.5142L78.2534 46.3557L79.25 46.4385ZM78.8984 52.2393H77.8984V53.2393H78.8984V52.2393ZM84.1133 52.1221L84.1389 53.1217L85.1133 53.0968V52.1221H84.1133ZM83.9961 46.0869L84.9958 46.0641L84.9735 45.0869H83.9961V46.0869ZM88.9062 42.1299L89.0234 42.3057L90.6875 41.1963L90.5703 41.0205L88.9062 42.1299ZM88.8555 41.751V54.876H90.8555V41.751H88.8555ZM88.8555 54.876C88.8555 54.5517 89.0116 54.3338 89.0971 54.2384C89.1829 54.1428 89.2647 54.0927 89.2914 54.077C89.3473 54.044 89.3721 54.0407 89.3205 54.0576C89.2313 54.0868 89.0564 54.1312 88.7689 54.1878C88.2056 54.2986 87.3377 54.432 86.1512 54.5876L86.4113 56.5706C87.6076 56.4137 88.5269 56.2737 89.1549 56.1501C89.4631 56.0895 89.735 56.0265 89.9436 55.958C90.0409 55.9261 90.1775 55.8764 90.3079 55.7994C90.3717 55.7618 90.4815 55.6904 90.5859 55.5739C90.69 55.4578 90.8555 55.2198 90.8555 54.876H88.8555ZM85.2812 55.5791V55.8135H87.2812V55.5791H85.2812ZM85.4385 56.3518C87.3755 59.3844 88.5382 61.2257 88.9394 61.8944L90.6544 60.8654C90.2352 60.1669 89.0542 58.2972 87.124 55.2752L85.4385 56.3518ZM89.3497 60.4855L89.2325 60.544L90.1269 62.3329L90.2441 62.2743L89.3497 60.4855ZM89.6797 60.4385C88.7332 60.4385 86.598 60.5181 83.3043 60.674L83.3988 62.6717C86.7067 62.5151 88.7903 62.4385 89.6797 62.4385V60.4385ZM83.8996 60.8364C83.9678 60.8811 83.9527 60.8892 83.8285 60.7385C83.7266 60.6147 83.5904 60.4331 83.4171 60.1849C83.0718 59.6902 82.6121 58.9788 82.0348 58.0425L80.3324 59.0922C80.9172 60.0407 81.3999 60.7892 81.7772 61.3297C81.9653 61.5992 82.1355 61.8289 82.285 62.0103C82.4123 62.1648 82.5937 62.3718 82.8035 62.5093L83.8996 60.8364ZM82.0226 58.0232C81.5521 57.2979 81.1827 56.7434 80.9178 56.3665C80.7871 56.1805 80.6713 56.0226 80.5761 55.9051C80.5309 55.8494 80.4722 55.7801 80.4072 55.7168C80.3765 55.6869 80.3202 55.6345 80.2451 55.583C80.213 55.561 79.9891 55.3994 79.6602 55.3994V57.3994C79.341 57.3994 79.1302 57.2435 79.1146 57.2328C79.0559 57.1926 79.0195 57.1571 79.012 57.1498C78.9934 57.1317 78.9945 57.1301 79.0226 57.1647C79.0738 57.2279 79.1582 57.341 79.2814 57.5164C79.5244 57.8621 79.8776 58.3915 80.3446 59.1116L82.0226 58.0232ZM78.7657 55.9522L78.7071 56.0694L80.496 56.9638L80.5546 56.8466L78.7657 55.9522ZM78.6026 56.4717L78.3682 61.6865L80.3662 61.7763L80.6006 56.5615L78.6026 56.4717ZM78.7425 60.9506C78.7272 60.9628 78.7437 60.9472 78.7881 60.9249C78.8254 60.9063 78.9495 60.8486 79.1328 60.8486V62.8486C79.3747 62.8486 79.5672 62.7715 79.6826 62.7138C79.8052 62.6525 79.9095 62.5782 79.9919 62.5123L78.7425 60.9506ZM79.1328 60.8486C78.1876 60.8486 76.4854 60.9085 74.0458 61.0256L74.1417 63.0233C76.5849 62.906 78.2421 62.8486 79.1328 62.8486V60.8486ZM74.9258 61.4697L74.8086 61.2939L73.1445 62.4033L73.2617 62.5791L74.9258 61.4697ZM74.9766 61.8486V42.8057H72.9766V61.8486H74.9766ZM74.9766 42.8057C74.9766 42.918 74.9531 43.052 74.8856 43.187C74.8181 43.322 74.725 43.4211 74.6352 43.4885C74.5494 43.5528 74.4716 43.5849 74.4246 43.6005C74.3772 43.6164 74.3444 43.621 74.335 43.6222L74.0869 41.6376C73.9311 41.6571 73.674 41.7094 73.4352 41.8885C73.1443 42.1066 72.9766 42.4421 72.9766 42.8057H74.9766ZM74.2787 43.6276L89.8061 42.5729L89.6705 40.5775L74.1432 41.6322L74.2787 43.6276ZM78.2534 46.3557C78.0194 49.1742 77.8984 51.1471 77.8984 52.2393H79.8984C79.8984 51.2416 80.0119 49.3472 80.2466 46.5212L78.2534 46.3557ZM78.8984 53.2393C79.3447 53.2393 81.1012 53.1996 84.1389 53.1217L84.0876 51.1224C81.0316 51.2008 79.3116 51.2393 78.8984 51.2393V53.2393ZM85.1133 52.1221C85.1133 51.5021 85.0738 49.4753 84.9958 46.0641L82.9964 46.1098C83.0746 49.5345 83.1133 51.5311 83.1133 52.1221H85.1133ZM83.9961 45.0869C83.5115 45.0869 81.8708 45.2102 79.1646 45.4421L79.3354 47.4348C82.0979 47.198 83.6214 47.0869 83.9961 47.0869V45.0869ZM106.818 40.5205L107.65 39.9658L107.332 39.4881L106.759 39.5223L106.818 40.5205ZM106.936 40.6963H107.936V40.3935L107.768 40.1416L106.936 40.6963ZM106.76 62.0244L106.71 63.0232L106.972 63.0363L107.207 62.9188L106.76 62.0244ZM102.6 57.6885L103.594 57.5847L103.503 56.7121L102.626 56.6888L102.6 57.6885ZM95.7881 57.4541H94.7881V58.4062L95.7391 58.4529L95.7881 57.4541ZM95.7881 57.3516H96.7881L94.7952 57.2327L95.7881 57.3516ZM95.334 61.1455L95.8887 61.9776L96.2721 61.7219L96.3269 61.2644L95.334 61.1455ZM95.1582 61.2627L95.09 62.2604L95.4296 62.2836L95.7129 62.0947L95.1582 61.2627ZM91.1738 61.0283L90.3418 61.583L90.6386 62.0283H91.1738V61.0283ZM91.0566 60.8525H90.0566V61.1553L90.2246 61.4072L91.0566 60.8525ZM95.5098 41.2236L95.5328 42.2234L95.5782 42.2223L95.6233 42.2172L95.5098 41.2236ZM96.3887 46.1602V45.1602H95.3887V46.1602H96.3887ZM96.3887 52.9717H95.3887V53.9717H96.3887V52.9717ZM101.179 52.9717V53.9717H102.251L102.176 52.9019L101.179 52.9717ZM100.739 46.2041H101.739V45.5861L101.186 45.3097L100.739 46.2041ZM100.651 46.1602L101.099 45.2657L100.887 45.1602H100.651V46.1602ZM105.986 41.0752L106.104 41.251L107.768 40.1416L107.65 39.9658L105.986 41.0752ZM105.936 40.6963V61.8486H107.936V40.6963H105.936ZM105.936 61.8486C105.936 61.5192 106.105 61.3091 106.184 61.2294C106.227 61.1869 106.263 61.1609 106.282 61.1484C106.292 61.1416 106.3 61.137 106.305 61.1342C106.31 61.1314 106.312 61.1301 106.313 61.13L107.207 62.9188C107.313 62.866 107.462 62.7799 107.599 62.6436C107.737 62.5053 107.936 62.2367 107.936 61.8486H105.936ZM106.81 61.0257C105.543 60.9623 104.608 60.9021 103.995 60.8455C103.684 60.8168 103.48 60.7911 103.363 60.7705C103.298 60.759 103.301 60.7559 103.338 60.7686C103.35 60.7727 103.432 60.8004 103.531 60.868C103.584 60.9041 103.951 61.1583 103.951 61.6729H101.951C101.951 62.2008 102.329 62.4685 102.401 62.5183C102.52 62.5994 102.632 62.6408 102.684 62.6586C102.8 62.6988 102.922 62.7235 103.015 62.74C103.216 62.7755 103.488 62.8072 103.811 62.8371C104.468 62.8977 105.437 62.9595 106.71 63.0232L106.81 61.0257ZM103.951 61.6729C103.951 61.1966 103.825 59.8009 103.594 57.5847L101.605 57.7923C101.843 60.0683 101.951 61.3288 101.951 61.6729H103.951ZM102.626 56.6888C99.6792 56.6108 97.4176 56.5329 95.8371 56.4553L95.7391 58.4529C97.3422 58.5316 99.6216 58.6099 102.573 58.6881L102.626 56.6888ZM96.7881 57.4541V57.3516H94.7881V57.4541H96.7881ZM94.7952 57.2327L94.3411 61.0267L96.3269 61.2644L96.781 57.4704L94.7952 57.2327ZM94.7793 60.3135L94.6035 60.4306L95.7129 62.0947L95.8887 61.9776L94.7793 60.3135ZM95.2264 60.265C92.9631 60.1103 91.5887 60.0283 91.1738 60.0283V62.0283C91.5012 62.0283 92.783 62.1026 95.09 62.2604L95.2264 60.265ZM92.0059 60.4736L91.8887 60.2978L90.2246 61.4072L90.3418 61.583L92.0059 60.4736ZM92.0566 60.8525V41.6338H90.0566V60.8525H92.0566ZM92.0566 41.6338C92.0566 41.949 91.9075 42.17 91.8012 42.2826C91.7028 42.3868 91.6084 42.4368 91.5781 42.4522C91.5157 42.4838 91.4918 42.4828 91.5593 42.4673C91.6774 42.4401 91.9015 42.4064 92.2616 42.3732C92.9683 42.3081 94.0536 42.2574 95.5328 42.2234L95.4867 40.2239C93.9972 40.2582 92.8559 40.31 92.0782 40.3817C91.6962 40.4168 91.3636 40.46 91.1106 40.5183C90.9926 40.5455 90.8295 40.5894 90.6743 40.668C90.5976 40.7069 90.4684 40.7809 90.3469 40.9096C90.2174 41.0469 90.0566 41.2929 90.0566 41.6338H92.0566ZM95.6233 42.2172C95.6231 42.2172 95.6246 42.217 95.6284 42.2166C95.6321 42.2163 95.6371 42.2158 95.6437 42.2152C95.6569 42.214 95.6742 42.2125 95.6962 42.2106C95.7401 42.207 95.7984 42.2025 95.8717 42.1972C96.0183 42.1864 96.2191 42.1725 96.4752 42.1555C96.9869 42.1215 97.7134 42.0752 98.6553 42.0166C100.539 41.8995 103.28 41.7336 106.878 41.5187L106.759 39.5223C99.5911 39.9502 95.7738 40.187 95.3962 40.2301L95.6233 42.2172ZM95.3887 46.1602V52.9717H97.3887V46.1602H95.3887ZM96.3887 53.9717H101.179V51.9717H96.3887V53.9717ZM102.176 52.9019C101.881 48.6788 101.739 46.4803 101.739 46.2041H99.7393C99.7393 46.5725 99.8905 48.8857 100.181 53.0414L102.176 52.9019ZM101.186 45.3097L101.099 45.2657L100.204 47.0546L100.292 47.0985L101.186 45.3097ZM100.651 45.1602H96.3887V47.1602H100.651V45.1602ZM108.195 41.8682L108.238 40.8691L107.98 40.858L107.748 40.9737L108.195 41.8682ZM112.297 42.0439L113.191 41.5967L112.928 41.0701L112.34 41.0449L112.297 42.0439ZM112.355 42.1611H113.355V41.9251L113.25 41.7139L112.355 42.1611ZM112.18 49.0166L111.18 48.9785L111.141 50.0166H112.18V49.0166ZM119.445 49.3096L119.401 50.3086L120.482 50.3565L120.445 49.2751L119.445 49.3096ZM119.211 42.5127L118.656 41.6806L118.192 41.9899L118.212 42.5472L119.211 42.5127ZM119.387 42.3955L119.427 41.3963L119.102 41.3833L118.832 41.5635L119.387 42.3955ZM123.781 42.5713L124.613 42.0166L124.331 41.5925L123.821 41.5721L123.781 42.5713ZM123.898 42.7471H124.898V42.4443L124.73 42.1924L123.898 42.7471ZM123.723 54.4072L123.649 55.4045L123.923 55.4248L124.17 55.3017L123.723 54.4072ZM118.977 54.0557L119.05 53.0584L118.045 52.9839L117.979 53.9896L118.977 54.0557ZM118.508 61.79L119.478 62.0326L119.508 61.9131V61.79H118.508ZM118.215 62.0244L118.177 63.0237L118.196 63.0244H118.215V62.0244ZM112.707 61.8486H111.707V62.8486H112.707V61.8486ZM112.59 61.7314L111.591 61.6829L111.54 62.7314H112.59V61.7314ZM113 53.2939L113.999 53.3425L114.039 52.5228L113.243 52.3238L113 53.2939ZM108.02 51.9463H107.02V52.4723L107.453 52.7703L108.02 51.9463ZM108.152 42.8672L112.254 43.043L112.34 41.0449L108.238 40.8691L108.152 42.8672ZM111.402 42.4912L111.461 42.6083L113.25 41.7139L113.191 41.5967L111.402 42.4912ZM111.355 42.1611C111.355 43.6353 111.298 45.9047 111.18 48.9785L113.179 49.0547C113.296 45.9761 113.355 43.6752 113.355 42.1611H111.355ZM112.18 50.0166C112.59 50.0166 114.977 50.1124 119.401 50.3086L119.49 48.3106C115.105 48.1161 112.648 48.0166 112.18 48.0166V50.0166ZM120.445 49.2751L120.21 42.4782L118.212 42.5472L118.446 49.344L120.445 49.2751ZM119.766 43.3447L119.941 43.2276L118.832 41.5635L118.656 41.6806L119.766 43.3447ZM119.347 43.3947L123.741 43.5705L123.821 41.5721L119.427 41.3963L119.347 43.3947ZM122.949 43.126L123.066 43.3018L124.73 42.1924L124.613 42.0166L122.949 43.126ZM122.898 42.7471V54.2314H124.898V42.7471H122.898ZM122.898 54.2314C122.898 53.902 123.068 53.6919 123.147 53.6122C123.19 53.5697 123.226 53.5437 123.245 53.5312C123.255 53.5244 123.263 53.5198 123.268 53.517C123.273 53.5142 123.275 53.5129 123.275 53.5128L124.17 55.3017C124.276 55.2488 124.425 55.1627 124.562 55.0264C124.7 54.8881 124.898 54.6195 124.898 54.2314H122.898ZM123.797 53.41L119.05 53.0584L118.903 55.0529L123.649 55.4045L123.797 53.41ZM117.979 53.9896C117.668 58.6767 117.508 61.3071 117.508 61.79H119.508C119.508 61.3941 119.66 58.8683 119.974 54.1218L117.979 53.9896ZM117.538 61.5475C117.556 61.4748 117.615 61.3176 117.781 61.185C117.95 61.0498 118.124 61.0244 118.215 61.0244V63.0244C118.462 63.0244 118.763 62.96 119.03 62.7467C119.293 62.5359 119.421 62.2616 119.478 62.0326L117.538 61.5475ZM118.252 61.0251C115.148 60.9083 113.288 60.8486 112.707 60.8486V62.8486C113.24 62.8486 115.051 62.9061 118.177 63.0237L118.252 61.0251ZM113.707 61.8486C113.707 61.6554 113.658 61.3268 113.385 61.0536C113.112 60.7804 112.783 60.7314 112.59 60.7314V62.7314C112.475 62.7314 112.205 62.702 111.971 62.4678C111.736 62.2337 111.707 61.9637 111.707 61.8486H113.707ZM113.589 61.78L113.999 53.3425L112.001 53.2454L111.591 61.6829L113.589 61.78ZM113.243 52.3238C111.662 51.9287 110.464 51.6205 109.643 51.3985C109.232 51.2872 108.923 51.1996 108.712 51.1348C108.605 51.1021 108.533 51.0783 108.489 51.0624C108.402 51.0309 108.483 51.0511 108.586 51.1222L107.453 52.7703C107.596 52.8683 107.762 52.9261 107.808 52.9428C107.897 52.9751 108.005 53.0102 108.126 53.0471C108.369 53.1215 108.702 53.2158 109.121 53.3291C109.96 53.5562 111.174 53.8681 112.757 54.2641L113.243 52.3238ZM109.02 51.9463V42.0439H107.02V51.9463H109.02ZM109.02 42.0439C109.02 42.3734 108.85 42.5835 108.771 42.6632C108.728 42.7057 108.692 42.7317 108.673 42.7442C108.663 42.7509 108.655 42.7556 108.65 42.7584C108.645 42.7612 108.643 42.7625 108.643 42.7626L107.748 40.9737C107.642 41.0266 107.493 41.1127 107.356 41.2489C107.218 41.3872 107.02 41.6559 107.02 42.0439H109.02ZM125.393 41.751V40.751H125.157L124.945 40.8566L125.393 41.751ZM140.979 42.3369L141.811 41.7822L141.528 41.3578L141.018 41.3377L140.979 42.3369ZM141.096 42.5127H142.096V42.2099L141.928 41.958L141.096 42.5127ZM141.096 46.6729L141.928 47.2276L142.096 46.9756V46.6729H141.096ZM140.979 46.8486L140.885 47.8443L141.48 47.8999L141.811 47.4033L140.979 46.8486ZM132.072 46.2041V45.2041H131.203L131.082 46.0648L132.072 46.2041ZM131.545 49.9541L130.555 49.8148L130.394 50.9541H131.545V49.9541ZM137.814 53.0596L136.815 53.102L136.856 54.0596H137.814V53.0596ZM137.932 54.1729H138.932V54.1531L138.931 54.1334L137.932 54.1729ZM135.295 54.583L135.251 53.584L135.097 53.5908L134.953 53.6432L135.295 54.583ZM131.486 54.9932L131.39 53.9978L130.366 54.0965L130.494 55.1172L131.486 54.9932ZM131.838 57.8057L130.846 57.9297L130.963 58.8678L131.906 58.8033L131.838 57.8057ZM140.979 57.1025L141.811 56.5478L141.482 56.0545L140.891 56.1064L140.979 57.1025ZM141.096 57.2783H142.096V56.9755L141.928 56.7236L141.096 57.2783ZM137.58 61.4971V60.4971H137.014L136.723 60.9826L137.58 61.4971ZM125.51 61.9658L125.477 60.9664L125.258 60.9736L125.063 61.0714L125.51 61.9658ZM125.334 62.0244L124.502 62.5791L124.799 63.0244H125.334V62.0244ZM125.217 61.8486H124.217V62.1514L124.385 62.4033L125.217 61.8486ZM125.393 42.751C125.855 42.751 131.015 42.9447 140.939 43.3361L141.018 41.3377C131.137 40.9479 125.907 40.751 125.393 40.751V42.751ZM140.146 42.8916L140.264 43.0674L141.928 41.958L141.811 41.7822L140.146 42.8916ZM140.096 42.5127V46.6729H142.096V42.5127H140.096ZM140.264 46.1182L140.146 46.2939L141.811 47.4033L141.928 47.2276L140.264 46.1182ZM141.072 45.853C136.494 45.4244 133.476 45.2041 132.072 45.2041V47.2041C133.364 47.2041 136.283 47.4134 140.885 47.8443L141.072 45.853ZM131.082 46.0648L130.555 49.8148L132.535 50.0934L133.063 46.3434L131.082 46.0648ZM131.545 50.9541H137.404V48.9541H131.545V50.9541ZM137.404 50.9541C136.917 50.9541 136.678 50.6144 136.641 50.5591C136.583 50.4735 136.57 50.4155 136.579 50.4454C136.594 50.4915 136.622 50.6174 136.655 50.8614C136.717 51.3334 136.772 52.0737 136.815 53.102L138.814 53.0172C138.769 51.9752 138.712 51.1627 138.637 50.5995C138.601 50.3259 138.555 50.0637 138.489 49.8509C138.458 49.7515 138.403 49.5964 138.302 49.4461C138.222 49.3261 137.938 48.9541 137.404 48.9541V50.9541ZM137.814 54.0596C137.474 54.0596 137.24 53.8921 137.126 53.7801C137.017 53.6739 136.96 53.5688 136.938 53.5242C136.892 53.4317 136.876 53.3601 136.876 53.3596C136.872 53.342 136.877 53.3602 136.886 53.4426C136.902 53.5944 136.918 53.8462 136.932 54.2123L138.931 54.1334C138.916 53.7574 138.898 53.4524 138.875 53.2332C138.864 53.13 138.848 53.009 138.822 52.8987C138.811 52.8518 138.785 52.7454 138.727 52.6298C138.699 52.5735 138.636 52.4597 138.521 52.3477C138.401 52.23 138.161 52.0596 137.814 52.0596V54.0596ZM136.932 54.1729C136.932 53.7812 137.161 53.5488 137.255 53.4709C137.307 53.4281 137.351 53.4032 137.373 53.3915C137.397 53.3791 137.412 53.3734 137.413 53.3729C137.415 53.3724 137.393 53.3804 137.337 53.3932C137.284 53.4055 137.212 53.4193 137.119 53.4338C136.735 53.4934 136.121 53.5453 135.251 53.584L135.339 55.582C136.227 55.5426 136.931 55.4871 137.426 55.41C137.665 55.3728 137.912 55.3226 138.12 55.2438C138.22 55.2062 138.377 55.1382 138.526 55.0158C138.675 54.8927 138.932 54.6133 138.932 54.1729H136.932ZM134.953 53.6432C135.048 53.6088 135.12 53.6024 135.043 53.6147C135.008 53.6203 134.952 53.6282 134.87 53.6387C134.708 53.6594 134.47 53.6866 134.155 53.7206C133.526 53.7883 132.605 53.8807 131.39 53.9978L131.582 55.9886C132.799 55.8713 133.729 55.7781 134.369 55.7091C134.689 55.6747 134.941 55.6458 135.123 55.6226C135.213 55.6111 135.293 55.6001 135.358 55.5897C135.38 55.5862 135.515 55.567 135.637 55.5228L134.953 53.6432ZM130.494 55.1172L130.846 57.9297L132.83 57.6816L132.479 54.8691L130.494 55.1172ZM131.906 58.8033C135.339 58.5686 138.392 58.3338 141.066 58.0987L140.891 56.1064C138.233 56.3401 135.193 56.5739 131.77 56.808L131.906 58.8033ZM140.146 57.6572L140.264 57.833L141.928 56.7236L141.811 56.5478L140.146 57.6572ZM140.096 57.2783V61.2041H142.096V57.2783H140.096ZM140.096 61.2041C140.096 60.6694 140.496 60.4326 140.537 60.409C140.622 60.3594 140.675 60.3519 140.633 60.3621C140.568 60.3786 140.413 60.404 140.134 60.4273C139.591 60.4725 138.746 60.4971 137.58 60.4971V62.4971C138.758 62.4971 139.671 62.4728 140.3 62.4204C140.606 62.3948 140.891 62.3592 141.119 62.3024C141.224 62.2761 141.386 62.2289 141.545 62.1365C141.658 62.0702 142.096 61.7877 142.096 61.2041H140.096ZM136.723 60.9826C136.861 60.7513 137.052 60.6464 137.096 60.6223C137.167 60.5831 137.227 60.5616 137.255 60.5523C137.313 60.5326 137.359 60.5236 137.37 60.5212C137.401 60.5151 137.419 60.5133 137.411 60.5144C137.4 60.5156 137.369 60.5187 137.308 60.5231C137.192 60.5317 137.01 60.5424 136.759 60.5551C136.258 60.5804 135.507 60.6126 134.502 60.6516C132.493 60.7296 129.485 60.8345 125.477 60.9664L125.543 62.9653C129.552 62.8334 132.565 62.7284 134.579 62.6501C135.586 62.611 136.347 62.5785 136.86 62.5526C137.115 62.5396 137.315 62.528 137.455 62.5177C137.523 62.5127 137.589 62.5071 137.645 62.5006C137.669 62.4977 137.713 62.4923 137.761 62.4827C137.781 62.4786 137.834 62.4679 137.897 62.4466C137.927 62.4364 137.989 62.4141 138.061 62.3742C138.106 62.3493 138.298 62.2436 138.438 62.0116L136.723 60.9826ZM125.063 61.0714C125.05 61.0777 125.061 61.071 125.091 61.0611C125.107 61.0558 125.134 61.0475 125.171 61.0402C125.207 61.033 125.263 61.0244 125.334 61.0244V63.0244C125.628 63.0244 125.871 62.9032 125.957 62.8602L125.063 61.0714ZM126.166 61.4697L126.049 61.2939L124.385 62.4033L124.502 62.5791L126.166 61.4697ZM126.217 61.8486V41.9268H124.217V61.8486H126.217ZM126.217 41.9268C126.217 42.2562 126.048 42.4663 125.968 42.546C125.925 42.5885 125.889 42.6145 125.87 42.627C125.86 42.6338 125.852 42.6384 125.848 42.6412C125.843 42.644 125.84 42.6453 125.84 42.6454L124.945 40.8566C124.84 40.9094 124.69 40.9955 124.554 41.1318C124.415 41.2701 124.217 41.5387 124.217 41.9268H126.217ZM142.297 40.1104L142.744 39.2159L141.955 38.8211L141.465 39.5557L142.297 40.1104ZM142.473 40.1689L142.507 39.1695L142.49 39.1689H142.473V40.1689ZM154.133 40.7549H153.133V41.1309L153.381 41.4137L154.133 40.7549ZM156.008 59.8564L155.327 59.1237L155.27 59.177L155.221 59.2386L156.008 59.8564ZM154.309 61.0869V60.0869H154.271L154.234 60.0897L154.309 61.0869ZM142.297 62.0244L141.465 62.5791L141.836 63.1363L142.493 63.005L142.297 62.0244ZM142.18 61.8486H141.18V62.1514L141.348 62.4033L142.18 61.8486ZM142.18 40.2861L141.348 39.7314L141.18 39.9834V40.2861H142.18ZM147.688 45.9697L147.675 44.9698L146.7 44.9822L146.688 45.9571L147.688 45.9697ZM147.57 55.8135L148.568 55.8847L148.57 55.8491V55.8135H147.57ZM147.512 56.8682H146.512V57.8682H147.512V56.8682ZM153.137 56.3994L153.234 57.3947L154.137 57.3066V56.3994H153.137ZM153.254 45.9111L154.254 45.9269L154.27 44.9111H153.254V45.9111ZM141.85 41.0048C141.936 41.0478 142.179 41.1689 142.473 41.1689V39.1689C142.544 39.1689 142.6 39.1776 142.636 39.1847C142.673 39.192 142.7 39.2004 142.716 39.2056C142.745 39.2155 142.757 39.2222 142.744 39.2159L141.85 41.0048ZM142.439 41.1684C146.324 41.3002 149.233 41.4147 151.168 41.5119C152.137 41.5606 152.852 41.6045 153.321 41.6434C153.559 41.6632 153.715 41.6801 153.804 41.6933C153.854 41.7007 153.85 41.7023 153.819 41.6935C153.811 41.6913 153.737 41.6718 153.646 41.6226C153.602 41.5988 153.502 41.541 153.402 41.4341C153.299 41.3246 153.133 41.0937 153.133 40.7549H155.133C155.133 40.4121 154.965 40.1772 154.858 40.0636C154.754 39.9527 154.648 39.8908 154.597 39.8629C154.491 39.8056 154.394 39.7777 154.356 39.767C154.264 39.7413 154.168 39.7254 154.097 39.7149C153.943 39.692 153.735 39.6708 153.487 39.6503C152.984 39.6086 152.242 39.5634 151.268 39.5144C149.316 39.4164 146.394 39.3014 142.507 39.1695L142.439 41.1684ZM153.381 41.4137C154.688 42.9065 155.663 44.0375 156.311 44.81C156.635 45.1977 156.87 45.4867 157.021 45.6827C157.098 45.7826 157.142 45.8447 157.164 45.8771C157.176 45.895 157.169 45.8867 157.156 45.861C157.149 45.8484 157.132 45.8145 157.115 45.7659C157.103 45.7334 157.059 45.6104 157.059 45.4424H159.059C159.059 45.2658 159.012 45.1315 158.995 45.0849C158.972 45.0221 158.947 44.9714 158.931 44.9391C158.897 44.874 158.86 44.8152 158.831 44.7715C158.77 44.6806 158.692 44.5749 158.606 44.4624C158.429 44.2335 158.173 43.9195 157.844 43.5259C157.182 42.736 156.195 41.5916 154.885 40.096L153.381 41.4137ZM157.059 45.4424V57.6299H159.059V45.4424H157.059ZM157.059 57.6299C157.059 57.4255 157.129 57.2941 157.13 57.293C157.141 57.2697 157.142 57.2727 157.117 57.3087C157.066 57.3792 156.97 57.4969 156.81 57.6702C156.495 58.0124 156.005 58.4945 155.327 59.1237L156.688 60.5892C157.378 59.9489 157.913 59.4251 158.281 59.0251C158.464 58.8274 158.624 58.6399 158.744 58.4711C158.804 58.3875 158.869 58.2873 158.923 58.1773C158.967 58.0896 159.059 57.888 159.059 57.6299H157.059ZM155.221 59.2386C154.931 59.6079 154.694 59.8384 154.513 59.9694C154.329 60.1023 154.269 60.0869 154.309 60.0869V62.0869C154.837 62.0869 155.303 61.8664 155.686 61.5892C156.072 61.3101 156.44 60.9253 156.794 60.4743L155.221 59.2386ZM154.234 60.0897C150.327 60.3827 147.372 60.6074 145.368 60.7638C144.367 60.8419 143.602 60.9031 143.074 60.9473C142.811 60.9694 142.604 60.9874 142.455 61.0013C142.343 61.0118 142.19 61.0259 142.101 61.0438L142.493 63.005C142.452 63.0131 142.467 63.009 142.642 62.9926C142.78 62.9796 142.98 62.9622 143.241 62.9404C143.763 62.8967 144.524 62.8358 145.524 62.7577C147.525 62.6016 150.477 62.3771 154.383 62.0841L154.234 60.0897ZM143.129 61.4697L143.012 61.2939L141.348 62.4033L141.465 62.5791L143.129 61.4697ZM143.18 61.8486V40.2861H141.18V61.8486H143.18ZM143.012 40.8408L143.129 40.6651L141.465 39.5557L141.348 39.7314L143.012 40.8408ZM146.688 45.9571C146.61 52.1225 146.57 55.4145 146.57 55.8135H148.57C148.57 55.4312 148.609 52.1607 148.687 45.9824L146.688 45.9571ZM146.573 55.7422C146.535 56.2791 146.512 56.669 146.512 56.8682H148.512C148.512 56.7548 148.528 56.4416 148.568 55.8847L146.573 55.7422ZM147.512 57.8682H147.57V55.8682H147.512V57.8682ZM147.57 57.8682C148.141 57.8682 150.063 57.7041 153.234 57.3947L153.04 55.4041C149.805 55.7197 148.016 55.8682 147.57 55.8682V57.8682ZM154.137 56.3994C154.137 54.3574 154.176 50.8683 154.254 45.9269L152.254 45.8953C152.176 50.8367 152.137 54.3399 152.137 56.3994H154.137ZM153.254 44.9111H153.195V46.9111H153.254V44.9111ZM153.195 44.9111C152.582 44.9111 150.738 44.9308 147.675 44.9698L147.7 46.9696C150.77 46.9305 152.598 46.9111 153.195 46.9111V44.9111ZM73.8887 71.001V70.001H73.6526L73.4415 70.1065L73.8887 71.001ZM78.1465 71.8994L77.1988 72.2187L77.2206 72.2832L77.2508 72.3441L78.1465 71.8994ZM80.8809 77.4072L79.9852 77.8519L80.2609 78.4072H80.8809V77.4072ZM80.9199 77.4072V78.4072H81.9199V77.4072H80.9199ZM80.4902 71.0791L79.9355 70.2471L79.4503 70.5706L79.4929 71.1522L80.4902 71.0791ZM80.6074 71.001V70.001H80.3046L80.0527 70.1689L80.6074 71.001ZM84.3574 71.1182H85.3574V70.8821L85.2518 70.671L84.3574 71.1182ZM82.3262 84.2041L82.2781 83.2053L81.3262 83.251V84.2041H82.3262ZM81.2715 84.3213L80.6715 85.1213L80.9714 85.3463L81.3454 85.3186L81.2715 84.3213ZM78.8105 81.1572L79.6193 80.5691L79.6091 80.555L79.5984 80.5413L78.8105 81.1572ZM77.1309 79.0088L77.9187 78.3929L76.9441 77.1463L76.2364 78.5616L77.1309 79.0088ZM77.0918 79.0869L76.1974 78.6397L76.0918 78.8508V79.0869H77.0918ZM74.709 84.9072L74.6558 83.9086L73.709 83.9591V84.9072H74.709ZM73.8887 84.9854V83.9854H72.8887V84.9854H73.8887ZM73.8496 85.0244L73.0176 85.5791L73.3144 86.0244H73.8496V85.0244ZM73.7715 84.9072H72.7715V85.21L72.9394 85.4619L73.7715 84.9072ZM73.8887 72.001H77.5605V70.001H73.8887V72.001ZM77.5605 72.001C77.3275 72.001 77.1648 71.9052 77.0885 71.8458C77.0189 71.7915 76.997 71.7503 77.011 71.7719C77.0218 71.7884 77.0464 71.8308 77.0817 71.9106C77.1162 71.9886 77.1555 72.0901 77.1988 72.2187L79.0941 71.5801C78.9835 71.2517 78.8523 70.9339 78.6862 70.6793C78.5616 70.4883 78.2047 70.001 77.5605 70.001V72.001ZM77.2508 72.3441L79.9852 77.8519L81.7766 76.9626L79.0422 71.4547L77.2508 72.3441ZM80.8809 78.4072H80.9199V76.4072H80.8809V78.4072ZM81.9199 77.4072V77.3291H79.9199V77.4072H81.9199ZM81.9199 77.3291C81.9199 77.0202 81.7713 74.8753 81.4876 71.006L79.4929 71.1522C79.6361 73.1049 79.7434 74.6005 79.8149 75.6399C79.8506 76.1598 79.8773 76.5638 79.8949 76.853C79.9038 76.9978 79.9102 77.1117 79.9145 77.1959C79.9166 77.2381 79.918 77.271 79.9189 77.2956C79.9199 77.3224 79.9199 77.3314 79.9199 77.3291H81.9199ZM81.0449 71.9112L81.1621 71.833L80.0527 70.1689L79.9355 70.2471L81.0449 71.9112ZM80.6074 72.001H84.2402V70.001H80.6074V72.001ZM84.2402 72.001C83.901 72.001 83.6812 71.8268 83.5917 71.7374C83.5043 71.65 83.467 71.5734 83.463 71.5654L85.2518 70.671C85.2088 70.5848 85.1324 70.4496 85.0059 70.3232C84.8774 70.1946 84.6185 70.001 84.2402 70.001V72.001ZM83.3574 71.1182V83.9307H85.3574V71.1182H83.3574ZM83.3574 83.9307C83.3574 83.4203 83.7219 83.1734 83.7784 83.1364C83.832 83.1014 83.8756 83.0817 83.8964 83.0729C83.9191 83.0633 83.9337 83.0587 83.9364 83.0579C83.9404 83.0567 83.9254 83.0613 83.8829 83.0695C83.8426 83.0773 83.7878 83.0862 83.7162 83.0959C83.4216 83.1355 82.9487 83.173 82.2781 83.2053L82.3742 85.2029C83.0579 85.1701 83.6005 85.1295 83.983 85.078C84.1665 85.0533 84.3593 85.0203 84.5246 84.9695C84.6 84.9462 84.7359 84.9 84.8729 84.8104C84.9717 84.7458 85.3574 84.4703 85.3574 83.9307H83.3574ZM81.3262 84.2041C81.3262 83.9073 81.4545 83.6915 81.5512 83.5733C81.6438 83.4601 81.74 83.3939 81.7892 83.3629C81.8875 83.301 81.9723 83.2729 81.9935 83.2658C82.0267 83.2547 82.0515 83.2487 82.0607 83.2466C82.0666 83.2452 82.071 83.2442 82.0736 83.2437C82.0763 83.2431 82.0779 83.2428 82.0782 83.2428C82.0786 83.2427 82.0759 83.2432 82.0695 83.2442C82.0632 83.2452 82.0546 83.2465 82.0433 83.248C82.0205 83.2511 81.9904 83.2548 81.9521 83.259C81.7952 83.2765 81.5464 83.2982 81.1976 83.324L81.3454 85.3186C81.6997 85.2923 81.9782 85.2684 82.1729 85.2468C82.2664 85.2364 82.3616 85.2243 82.4423 85.2094C82.4762 85.2031 82.5476 85.1893 82.6259 85.1632C82.6581 85.1524 82.7511 85.1207 82.8549 85.0554C82.9069 85.0226 83.0051 84.9547 83.0991 84.8398C83.1972 84.72 83.3262 84.5026 83.3262 84.2041H81.3262ZM81.8715 83.5213C81.9135 83.5528 81.8848 83.5369 81.7451 83.3739C81.628 83.2373 81.4705 83.0425 81.2698 82.7845C80.8695 82.2698 80.3202 81.5328 79.6193 80.5691L78.0018 81.7454C78.7072 82.7153 79.2712 83.4724 79.6911 84.0124C79.9006 84.2817 80.08 84.5044 80.2266 84.6755C80.3505 84.82 80.5123 85.0019 80.6715 85.1213L81.8715 83.5213ZM79.5984 80.5413L77.9187 78.3929L76.3431 79.6247L78.0227 81.7731L79.5984 80.5413ZM76.2364 78.5616L76.1974 78.6397L77.9862 79.5341L78.0253 79.456L76.2364 78.5616ZM76.0918 79.0869V84.5947H78.0918V79.0869H76.0918ZM76.0918 84.5947C76.0918 84.0378 76.5206 83.7943 76.5411 83.7821C76.6272 83.7306 76.6877 83.7167 76.6671 83.7226C76.6413 83.73 76.552 83.7497 76.3661 83.7741C76.0085 83.821 75.4441 83.8666 74.6558 83.9086L74.7622 85.9058C75.5624 85.8632 76.1894 85.8144 76.6261 85.7571C76.8373 85.7294 77.0459 85.6946 77.2186 85.6451C77.2974 85.6225 77.4323 85.5795 77.568 85.4983C77.6382 85.4563 78.0918 85.1825 78.0918 84.5947H76.0918ZM73.709 84.9072C73.709 84.4194 74.0383 84.1622 74.1415 84.0935C74.2596 84.0147 74.362 83.9859 74.383 83.9799C74.4392 83.9638 74.4617 83.9653 74.4091 83.9703C74.3213 83.9787 74.1549 83.9854 73.8887 83.9854V85.9854C74.1693 85.9854 74.413 85.979 74.5987 85.9613C74.6828 85.9533 74.8078 85.9385 74.9324 85.9029C74.9876 85.8872 75.1157 85.8477 75.2509 85.7576C75.3711 85.6774 75.709 85.408 75.709 84.9072H73.709ZM72.8887 84.9854C72.8887 84.8442 72.9246 84.5547 73.1718 84.3075C73.419 84.0604 73.7085 84.0244 73.8496 84.0244V86.0244C74.0168 86.0244 74.3258 85.9819 74.586 85.7218C74.8462 85.4616 74.8887 85.1525 74.8887 84.9854H72.8887ZM74.6817 84.4697L74.6035 84.3525L72.9394 85.4619L73.0176 85.5791L74.6817 84.4697ZM74.7715 84.9072V71.1182H72.7715V84.9072H74.7715ZM74.7715 71.1182C74.7715 71.4574 74.5974 71.6772 74.5079 71.7667C74.4205 71.8541 74.3439 71.8914 74.3359 71.8954L73.4415 70.1065C73.3553 70.1496 73.2202 70.226 73.0937 70.3525C72.9651 70.481 72.7715 70.7399 72.7715 71.1182H74.7715ZM85.2754 71.001L85.3211 70.002L84.7567 69.9762L84.4433 70.4463L85.2754 71.001ZM95.7441 71.5479L96.6386 71.1006L96.4604 70.7442L96.0859 70.6081L95.7441 71.5479ZM95.7832 71.626H96.7832V71.3899L96.6776 71.1788L95.7832 71.626ZM95.7832 84.9072L96.6152 85.4619L96.7832 85.21V84.9072H95.7832ZM95.7051 85.0244L95.6636 86.0236L96.2253 86.0469L96.5371 85.5791L95.7051 85.0244ZM85.2754 84.6338L84.4433 85.1885L84.7402 85.6338H85.2754V84.6338ZM85.1973 84.5166H84.1973V84.8194L84.3652 85.0713L85.1973 84.5166ZM85.1973 71.1182L84.3652 70.5635L84.1973 70.8154V71.1182H85.1973ZM88.5762 75.3174L88.3919 74.3345L87.5762 74.4875V75.3174H88.5762ZM88.5762 80.6885H87.5762V81.4906L88.3592 81.6647L88.5762 80.6885ZM92.209 81.2646L92.0608 82.2536L93.2271 82.4284L93.2089 81.2492L92.209 81.2646ZM92.1113 74.9365L93.1112 74.9211L93.0944 73.8288L92.0078 73.9419L92.1113 74.9365ZM85.2297 71.9999C88.6472 72.1562 91.2259 72.2797 92.9674 72.3707C93.8387 72.4162 94.497 72.4534 94.9449 72.4823C95.1697 72.4968 95.3359 72.5089 95.4475 72.5185C95.5042 72.5234 95.5391 72.527 95.5572 72.5292C95.5668 72.5304 95.5636 72.5302 95.5525 72.5283C95.5468 72.5273 95.5329 72.5249 95.514 72.5206C95.5 72.5174 95.4569 72.5075 95.4024 72.4876L96.0859 70.6081C95.9888 70.5727 95.9021 70.559 95.8894 70.5569C95.8562 70.5512 95.8244 70.547 95.7989 70.5439C95.7468 70.5375 95.6854 70.5316 95.6196 70.5259C95.4863 70.5144 95.303 70.5012 95.0737 70.4865C94.6133 70.4567 93.9452 70.4191 93.0717 70.3734C91.3236 70.2821 88.7396 70.1583 85.3211 70.002L85.2297 71.9999ZM94.8497 71.9951L94.8888 72.0732L96.6776 71.1788L96.6386 71.1006L94.8497 71.9951ZM94.7832 71.626V84.9072H96.7832V71.626H94.7832ZM94.9512 84.3525L94.873 84.4697L96.5371 85.5791L96.6152 85.4619L94.9512 84.3525ZM95.7465 84.0253C89.4879 83.7656 85.9796 83.6338 85.2754 83.6338V85.6338C85.9253 85.6338 89.3702 85.7624 95.6636 86.0236L95.7465 84.0253ZM86.1074 84.0791L86.0293 83.9619L84.3652 85.0713L84.4433 85.1885L86.1074 84.0791ZM86.1973 84.5166V71.1182H84.1973V84.5166H86.1973ZM86.0293 71.6729L86.1074 71.5557L84.4433 70.4463L84.3652 70.5635L86.0293 71.6729ZM87.5762 75.3174V80.6885H89.5762V75.3174H87.5762ZM88.3592 81.6647C88.6964 81.7396 89.9568 81.9383 92.0608 82.2536L92.3572 80.2757C90.2033 79.9529 89.0419 79.7676 88.7931 79.7123L88.3592 81.6647ZM93.2089 81.2492L93.1112 74.9211L91.1115 74.952L91.2091 81.2801L93.2089 81.2492ZM92.0078 73.9419C90.8812 74.0591 90.022 74.1496 89.431 74.2133C88.8773 74.2729 88.4944 74.3153 88.3919 74.3345L88.7605 76.3003C88.7414 76.3038 88.7863 76.297 88.9692 76.2761C89.1263 76.2582 89.3513 76.2334 89.6452 76.2018C90.2325 76.1385 91.0888 76.0483 92.2148 75.9312L92.0078 73.9419ZM96.7402 69.6338L96.8147 68.6366L96.5397 68.616L96.293 68.7394L96.7402 69.6338ZM100.139 69.9854L101.137 70.037L101.139 70.0112V69.9854H100.139ZM99.6699 79.0479L98.6713 78.9962L98.6169 80.0479H99.6699V79.0479ZM101.506 77.4072L100.847 76.6546L100.821 76.6776L100.797 76.7022L101.506 77.4072ZM102.131 76.8604V75.8604H101.755L101.472 76.1078L102.131 76.8604ZM102.209 76.8604L103.069 76.3505L102.779 75.8604H102.209V76.8604ZM104.084 80.0244L103.224 80.5342L103.514 81.0244H104.084V80.0244ZM104.201 80.0244V81.0244H105.219L105.201 80.0065L104.201 80.0244ZM104.006 70.3369L103.451 69.5049L102.984 69.8162L103.007 70.3769L104.006 70.3369ZM104.123 70.2588L104.199 69.2617L103.855 69.2356L103.568 69.4267L104.123 70.2588ZM107.209 84.9072L108.041 85.4619L108.209 85.21V84.9072H107.209ZM107.131 85.0244L107.064 86.0222L107.642 86.0607L107.963 85.5791L107.131 85.0244ZM102.404 82.5635L103.288 82.0951L103.274 82.0681L103.258 82.042L102.404 82.5635ZM101.896 81.8604V80.8604H101.351L101.055 81.3196L101.896 81.8604ZM100.139 84.5947V85.5947H100.685L100.98 85.1355L100.139 84.5947ZM100.1 84.5947L100.032 85.5925L100.066 85.5947H100.1V84.5947ZM96.7012 84.3994L95.8691 84.9541L96.166 85.3994H96.7012V84.3994ZM96.623 84.2822H95.623V84.585L95.791 84.8369L96.623 84.2822ZM96.6657 70.631C97.7964 70.7155 98.6344 70.7863 99.1862 70.8433C99.465 70.8722 99.6546 70.8959 99.7674 70.9141C99.8292 70.924 99.8386 70.9277 99.8196 70.9225C99.8176 70.9219 99.7548 70.9057 99.6741 70.8649C99.6367 70.846 99.5408 70.7951 99.4408 70.6985C99.3467 70.6077 99.1387 70.3667 99.1387 69.9854H101.139C101.139 69.5999 100.928 69.3548 100.83 69.2597C100.725 69.1588 100.623 69.1035 100.577 69.0802C100.478 69.0304 100.389 69.0048 100.352 68.9945C100.262 68.9697 100.165 68.9523 100.085 68.9395C99.9147 68.912 99.6795 68.8837 99.392 68.8539C98.8109 68.7938 97.9497 68.7214 96.8147 68.6366L96.6657 70.631ZM99.14 69.9337L98.6713 78.9962L100.669 79.0995L101.137 70.037L99.14 69.9337ZM99.6699 80.0479C99.9527 80.0479 100.166 79.9302 100.215 79.9039C100.305 79.8559 100.386 79.8003 100.451 79.7528C100.584 79.6558 100.736 79.5281 100.898 79.3834C101.226 79.09 101.667 78.6632 102.215 78.1122L100.797 76.7022C100.257 77.245 99.8488 77.6385 99.5651 77.892C99.4211 78.0208 99.3261 78.0981 99.2717 78.1378C99.2431 78.1587 99.2458 78.1544 99.2717 78.1405C99.2851 78.1333 99.3202 78.1152 99.372 78.0972C99.4164 78.0817 99.5241 78.0479 99.6699 78.0479V80.0479ZM102.164 78.1598L102.789 77.6129L101.472 76.1078L100.847 76.6546L102.164 78.1598ZM102.131 77.8604H102.209V75.8604H102.131V77.8604ZM101.349 77.3702L103.224 80.5342L104.944 79.5146L103.069 76.3505L101.349 77.3702ZM104.084 81.0244H104.201V79.0244H104.084V81.0244ZM105.201 80.0065C105.097 74.2083 105.032 70.9624 105.005 70.2969L103.007 70.3769C103.032 71.0135 103.097 74.226 103.201 80.0424L105.201 80.0065ZM104.561 71.169L104.678 71.0908L103.568 69.4267L103.451 69.5049L104.561 71.169ZM104.047 71.2559C105.073 71.3338 105.829 71.4011 106.324 71.4574C106.576 71.4861 106.739 71.5096 106.83 71.5269C106.882 71.5368 106.874 71.5379 106.837 71.5255C106.826 71.5216 106.748 71.4958 106.655 71.4354C106.635 71.4226 106.209 71.1666 106.209 70.6104H108.209C108.209 70.0444 107.775 69.7783 107.739 69.7551C107.63 69.6843 107.528 69.6478 107.484 69.633C107.383 69.5985 107.279 69.5765 107.203 69.562C107.036 69.5304 106.814 69.5002 106.551 69.4703C106.017 69.4095 105.23 69.34 104.199 69.2617L104.047 71.2559ZM106.209 70.6104V84.9072H108.209V70.6104H106.209ZM106.377 84.3525L106.299 84.4697L107.963 85.5791L108.041 85.4619L106.377 84.3525ZM107.197 84.0266C105.266 83.8979 104.088 83.8291 103.732 83.8291V85.8291C104.002 85.8291 105.09 85.8905 107.064 86.0222L107.197 84.0266ZM103.732 83.8291C104.058 83.8291 104.27 83.9889 104.302 84.0124C104.368 84.0608 104.409 84.1045 104.419 84.1157C104.443 84.1415 104.446 84.1492 104.422 84.115C104.379 84.0537 104.307 83.9393 104.2 83.757C103.989 83.3983 103.687 82.8471 103.288 82.0951L101.521 83.0319C101.923 83.7902 102.242 84.3719 102.474 84.7684C102.589 84.9636 102.693 85.1325 102.782 85.26C102.824 85.3202 102.881 85.3987 102.949 85.4717C102.981 85.5065 103.04 85.5679 103.123 85.6281C103.171 85.6634 103.397 85.8291 103.732 85.8291V83.8291ZM103.258 82.042C103.113 81.8048 102.994 81.6155 102.904 81.4814C102.861 81.4171 102.814 81.3489 102.769 81.2904C102.749 81.2642 102.709 81.2152 102.659 81.1642C102.635 81.1404 102.584 81.0911 102.511 81.0409C102.478 81.0176 102.26 80.8604 101.936 80.8604V82.8604C101.756 82.8604 101.619 82.812 101.544 82.7802C101.466 82.7464 101.407 82.7091 101.373 82.6853C101.306 82.6388 101.261 82.5949 101.244 82.5784C101.223 82.5576 101.209 82.5411 101.203 82.5335C101.195 82.5251 101.191 82.5195 101.19 82.5182C101.188 82.5161 101.192 82.5206 101.202 82.5347C101.211 82.5481 101.224 82.5665 101.24 82.5908C101.307 82.6912 101.41 82.8534 101.551 83.0849L103.258 82.042ZM101.936 80.8604H101.896V82.8604H101.936V80.8604ZM101.055 81.3196L99.2975 84.054L100.98 85.1355L102.738 82.4011L101.055 81.3196ZM100.139 83.5947H100.1V85.5947H100.139V83.5947ZM100.167 83.597C98.2601 83.4682 97.0827 83.3994 96.7012 83.3994V85.3994C96.9967 85.3994 98.085 85.4609 100.032 85.5925L100.167 83.597ZM97.5332 83.8447L97.4551 83.7275L95.791 84.8369L95.8691 84.9541L97.5332 83.8447ZM97.623 84.2822V69.751H95.623V84.2822H97.623ZM97.623 69.751C97.623 70.0902 97.4489 70.31 97.3595 70.3995C97.272 70.4869 97.1954 70.5242 97.1874 70.5282L96.293 68.7394C96.2069 68.7824 96.0717 68.8588 95.9452 68.9853C95.8167 69.1138 95.623 69.3727 95.623 69.751H97.623Z" fill="black"/>
</g>
<defs>
<filter id="filter0_d_701_261" x="0.5" y="0.458008" width="185" height="110.26" filterUnits="userSpaceOnUse" color-interpolation-filters="sRGB">
<feFlood flood-opacity="0" result="BackgroundImageFix"/>
<feColorMatrix in="SourceAlpha" type="matrix" values="0 0 0 0 0 0 0 0 0 0 0 0 0 0 0 0 0 0 127 0" result="hardAlpha"/>
<feOffset dx="4" dy="8"/>
<feComposite in2="hardAlpha" operator="out"/>
<feColorMatrix type="matrix" values="0 0 0 0 0 0 0 0 0 0 0 0 0 0 0 0 0 0 1 0"/>
<feBlend mode="normal" in2="BackgroundImageFix" result="effect1_dropShadow_701_261"/>
<feBlend mode="normal" in="SourceGraphic" in2="effect1_dropShadow_701_261" result="shape"/>
</filter>
<filter id="filter1_d_701_261" x="22.9707" y="12.6885" width="135.088" height="76.3359" filterUnits="userSpaceOnUse" color-interpolation-filters="sRGB">
<feFlood flood-opacity="0" result="BackgroundImageFix"/>
<feColorMatrix in="SourceAlpha" type="matrix" values="0 0 0 0 0 0 0 0 0 0 0 0 0 0 0 0 0 0 127 0" result="hardAlpha"/>
<feOffset dy="4"/>
<feComposite in2="hardAlpha" operator="out"/>
<feColorMatrix type="matrix" values="0 0 0 0 0 0 0 0 0 0 0 0 0 0 0 0 0 0 1 0"/>
<feBlend mode="normal" in2="BackgroundImageFix" result="effect1_dropShadow_701_261"/>
<feBlend mode="normal" in="SourceGraphic" in2="effect1_dropShadow_701_261" result="shape"/>
</filter>
</defs>
</svg>
